<svg version="1.1" id="Layer_1" xmlns="http://www.w3.org/2000/svg" xmlns:xlink="http://www.w3.org/1999/xlink" x="0px" y="0px"
     width="100%" viewBox="0 0 477 379" xml:space="preserve">
  <!-- Your SVG content goes here -->
<path fill="#FEFEFE" opacity="1.000000" stroke="none" 
	d="
M334.000000,380.000000 
	C222.666687,380.000000 111.833359,380.000000 1.000030,380.000000 
	C1.000020,253.666702 1.000020,127.333389 1.000010,1.000064 
	C159.999954,1.000042 318.999908,1.000042 477.999878,1.000021 
	C477.999939,127.333275 477.999939,253.666550 477.999969,379.999908 
	C430.166656,380.000000 382.333344,380.000000 334.000000,380.000000 
M291.537659,223.918808 
	C291.729858,223.632629 291.922058,223.346451 292.023315,223.034271 
	C292.023315,223.034271 292.076813,223.112228 292.693573,222.985474 
	C293.593781,222.152969 294.493988,221.320450 295.400665,220.400589 
	C295.400665,220.400589 295.486786,220.416489 296.093933,220.167114 
	C301.091797,215.132217 306.089661,210.097305 311.020447,205.007858 
	C311.020447,205.007858 311.045044,205.090729 311.575043,204.955460 
	C311.737274,204.646210 311.899506,204.336975 311.999573,204.006241 
	C311.999573,204.006241 312.042389,204.056274 312.576965,203.858917 
	C312.877991,203.392532 313.178986,202.926147 313.200470,202.306183 
	C313.200470,202.306183 313.503784,202.404831 313.942963,202.214706 
	C314.214386,202.009445 314.368835,201.737671 313.987640,201.052933 
	C314.129822,201.164597 314.272034,201.276245 314.888000,201.183609 
	C315.043579,200.885452 315.199158,200.587296 315.223480,200.207306 
	C315.223480,200.207306 315.286133,200.348740 315.859619,200.079529 
	C316.591583,199.062210 317.323517,198.044891 317.998993,197.004440 
	C317.998993,197.004440 318.033051,197.055130 318.611542,196.767120 
	C319.436218,195.528473 320.260925,194.289810 321.013763,193.013428 
	C321.013763,193.013428 321.042725,193.089218 321.555695,192.918167 
	C321.693787,192.605728 321.831848,192.293289 322.002014,191.996140 
	C322.002014,191.996140 321.974274,191.970734 322.478577,191.614471 
	C323.005737,190.753418 323.532898,189.892365 324.000397,189.004562 
	C324.000397,189.004562 324.037231,189.058640 324.633667,188.748734 
	C325.909698,186.671066 327.185760,184.593399 328.450745,182.422531 
	C328.450745,182.422531 328.529907,182.372086 329.025085,181.963013 
	C331.704773,176.627243 334.384430,171.291473 337.252289,165.802597 
	C337.252289,165.802597 337.195007,165.566864 337.765381,165.069275 
	C340.134521,156.486435 343.399811,148.030716 344.639984,139.287735 
	C346.103424,128.970413 345.305389,118.485626 339.998352,108.992531 
	C339.998352,108.992531 340.062927,108.961746 340.020172,108.254349 
	C339.080139,106.665596 338.140106,105.076843 337.218475,103.214348 
	C337.218475,103.214348 337.007050,103.039497 336.926300,102.343491 
	C334.801300,99.760132 332.676300,97.176781 330.455963,94.588768 
	C330.455963,94.588768 330.413025,94.503517 330.226715,94.066422 
	C330.030182,93.792099 329.764709,93.631920 329.090210,94.026428 
	C329.199310,93.877045 329.308380,93.727661 329.128662,93.011772 
	C327.759155,91.998657 326.389679,90.985542 325.000000,90.000305 
	C325.000000,90.000305 325.025848,89.977463 324.774811,89.397491 
	C323.864868,88.904869 322.954895,88.412239 322.008698,87.995071 
	C322.008698,87.995071 322.075470,87.944542 321.718903,87.359772 
	C315.554230,84.678497 309.389557,81.997215 303.265320,79.333542 
	C311.936890,65.009056 312.356476,56.241699 304.550262,46.480022 
	C304.550262,46.480022 304.474426,46.350624 304.247284,45.816227 
	C303.517548,45.185242 302.787811,44.554253 302.000610,43.993702 
	C302.000610,43.993702 302.075439,43.942249 301.874908,43.409252 
	C301.403198,43.110714 300.931519,42.812180 300.471588,42.584030 
	C300.471588,42.584030 300.411530,42.545490 300.061890,41.975014 
	C290.786499,35.779675 280.321899,35.774914 271.998901,41.997787 
	C271.998901,41.997787 271.965393,41.940701 271.309113,42.105267 
	C269.389252,44.227863 267.469360,46.350460 265.545013,48.572906 
	C265.545013,48.572906 265.472137,48.641289 264.971039,49.078907 
	C258.251678,60.874317 261.238464,71.260696 269.694061,80.422707 
	C260.966919,83.678665 252.483749,86.843605 244.001144,90.000610 
	C244.001144,90.000610 244.009781,90.004890 243.262482,90.002556 
	C239.829651,90.688683 236.396835,91.374817 232.969467,91.992989 
	C232.969467,91.992989 232.928253,92.047333 232.461914,91.543953 
	C216.045822,83.495132 198.572830,80.412529 180.308670,80.818382 
	C183.535934,81.891083 186.763184,82.963776 189.993729,83.994301 
	C189.993729,83.994301 189.961227,84.021484 190.382584,84.570961 
	C193.907806,86.084183 197.433044,87.597404 200.977280,89.025368 
	C200.977280,89.025368 200.903976,89.072884 201.212982,89.679558 
	C203.462051,90.822586 205.711121,91.965614 207.974838,93.025459 
	C207.974838,93.025459 207.902237,93.068626 208.221527,93.663071 
	C210.647491,95.251854 213.073456,96.840645 215.591476,98.427658 
	C215.591476,98.427658 215.625671,98.513153 215.999954,98.987389 
	C216.994080,99.672012 217.988220,100.356636 218.997696,100.996674 
	C218.997696,100.996674 218.957016,101.020630 219.183975,101.563332 
	C219.809067,102.008659 220.434174,102.453987 221.027237,102.985168 
	C221.027237,102.985168 221.104599,102.936058 221.385559,103.533180 
	C223.786560,105.830017 226.187561,108.126854 228.705475,110.073067 
	C228.705475,110.073067 228.540924,110.404030 228.717896,110.946991 
	C229.126831,111.325676 229.535767,111.704361 229.989044,112.015732 
	C229.989044,112.015732 229.911423,112.037483 230.028351,112.573082 
	C230.329239,112.760490 230.630112,112.947891 230.944183,113.052246 
	C230.944183,113.052246 230.860764,113.062828 231.014542,113.754349 
	C232.672028,116.412491 234.329498,119.070633 236.172379,122.026108 
	C237.224350,121.265663 238.109009,120.626175 238.998779,119.999695 
	C238.998779,119.999695 238.986267,119.990181 239.614044,119.924393 
	C240.419601,119.288010 241.225159,118.651627 242.001953,117.996361 
	C242.001953,117.996361 242.011078,118.029274 242.725845,117.928787 
	C250.192841,114.800438 257.440247,110.896057 265.173248,108.707718 
	C280.553436,104.355331 296.130493,102.237831 310.995117,110.995903 
	C310.995117,110.995903 310.953247,111.024902 311.201874,111.546684 
	C311.685883,111.841011 312.169861,112.135345 312.876343,112.186058 
	C312.876343,112.186058 312.614410,112.386642 312.785187,112.866905 
	C313.066742,113.041061 313.348328,113.215218 313.728180,113.456970 
	C313.728180,113.456970 313.612457,113.427650 313.805756,113.941956 
	C314.324890,114.443199 314.844025,114.944443 315.470398,115.511459 
	C315.470398,115.511459 315.510315,115.630768 315.741486,116.187782 
	C316.477020,117.150688 317.212524,118.113594 317.995300,119.010376 
	C317.995300,119.010376 317.921082,119.043518 318.034607,119.791924 
	C322.970581,130.036224 323.347748,140.849365 320.181335,151.388123 
	C316.616821,163.251907 311.764984,174.728928 307.410187,186.519592 
	C307.410187,186.519592 307.340393,186.661819 306.918274,187.112869 
	C305.927429,189.077087 304.936584,191.041321 303.461090,193.308090 
	C303.259796,193.836853 303.058502,194.365616 302.252594,195.200928 
	C300.792358,197.773117 299.332092,200.345306 297.968842,202.981735 
	C297.968842,202.981735 297.908569,202.882233 297.299316,203.173019 
	C294.710175,206.962219 292.121033,210.751434 289.553894,214.640793 
	C289.553894,214.640793 289.458252,214.603867 288.956604,214.937271 
	C288.286316,215.948212 287.616058,216.959137 287.002228,217.994278 
	C287.002228,217.994278 286.964447,217.945740 286.444214,218.194611 
	C286.153717,218.679825 285.863220,219.165024 285.769623,220.018036 
	C285.769623,220.018036 285.604187,219.635147 285.136292,219.872986 
	C284.998322,220.187149 284.860382,220.501297 284.859650,220.849899 
	C284.859650,220.849899 284.766144,220.743698 284.211365,220.976028 
	C283.776031,221.629974 283.340729,222.283936 282.976837,222.987152 
	C282.976837,222.987152 282.952118,222.903961 282.427063,223.052444 
	C282.266479,223.361893 282.105865,223.671341 282.001038,223.995972 
	C282.001038,223.995972 281.967834,223.948593 281.435791,224.188599 
	C281.154877,224.686279 280.873962,225.183945 280.811401,225.873245 
	C280.811401,225.873245 280.638885,225.639496 280.141205,225.820023 
	C279.981567,226.124878 279.821899,226.429733 279.925537,226.803711 
	C279.925537,226.803711 279.680939,226.684280 279.082642,226.956879 
	C275.408722,230.976685 271.734802,234.996490 267.668427,239.302063 
	C267.351379,239.596878 267.034332,239.891693 266.717255,240.186493 
	C266.948303,240.350464 267.179321,240.514435 267.410370,240.678406 
	C267.603729,240.100845 267.797089,239.523285 268.601929,238.719330 
	C273.092529,236.162918 277.583160,233.606522 282.011475,231.002075 
	C282.011475,231.002075 282.040833,231.075089 282.660095,230.959763 
	C283.585846,230.164047 284.511566,229.368347 285.526001,228.487198 
	C285.526001,228.487198 285.645050,228.455872 286.214081,228.192459 
	C287.330322,227.171280 288.446533,226.150101 289.811371,225.156921 
	C289.811371,225.156921 289.946167,224.946152 290.481842,224.891693 
	C290.670929,224.601379 290.860016,224.311081 291.000549,223.999207 
	C291.000549,223.999207 291.018982,224.049057 291.537659,223.918808 
M167.761902,146.607346 
	C167.471420,146.439224 167.180954,146.271088 166.989975,146.013519 
	C166.989975,146.013519 166.887207,146.107315 166.887543,145.437393 
	C166.236740,144.976227 165.585922,144.515060 164.998383,143.998947 
	C164.998383,143.998947 164.940674,144.058777 165.123703,143.318481 
	C168.246658,137.080688 168.636871,130.600861 166.876938,123.205261 
	C166.980988,122.487389 167.085037,121.769516 167.577728,120.659584 
	C167.606812,120.306252 167.635910,119.952927 167.741486,119.254227 
	C167.741486,119.254227 167.931549,118.955879 168.486465,118.591492 
	C168.666824,117.741096 168.847168,116.890709 169.157974,115.365463 
	C169.343643,113.727142 169.529312,112.088821 169.714996,110.450508 
	C168.000610,110.908203 166.158218,111.113441 164.609894,111.898613 
	C163.219086,112.603905 162.151352,113.946312 160.374054,114.496590 
	C160.218018,112.964966 160.061981,111.433342 160.043106,109.187767 
	C160.547958,107.479897 161.292252,105.798660 161.486023,104.056198 
	C161.658005,102.509720 161.218750,100.895256 161.049301,99.310799 
	C159.711700,99.885857 158.374115,100.460907 156.441925,101.283119 
	C155.612961,102.508644 154.784012,103.734177 153.432343,105.399483 
	C152.586563,107.247482 151.740784,109.095490 150.068329,110.990852 
	C149.369492,110.265785 148.081787,109.548973 148.071503,108.814255 
	C148.021072,105.215996 148.404236,101.613976 148.443298,98.011215 
	C148.464737,96.033974 148.108719,94.052628 147.996918,91.998924 
	C147.996918,91.998924 147.917847,92.069443 147.698898,91.385384 
	C145.821762,89.845108 144.035934,88.732101 143.153809,92.694946 
	C143.153809,92.694946 142.942780,93.005211 142.237076,93.152390 
	C141.842926,94.460251 141.448761,95.768112 141.027496,97.538544 
	C141.027496,97.538544 140.870438,97.974464 140.444839,98.297012 
	C140.383148,98.633263 140.321457,98.969505 140.159882,99.866570 
	C140.051773,100.230400 139.943680,100.594223 139.107452,101.163597 
	C138.832642,102.884789 138.557846,104.605988 138.186035,107.144814 
	C135.877548,118.683159 138.072754,129.595703 142.633453,140.230026 
	C148.844681,154.712921 158.160217,167.144394 169.547424,177.689560 
	C184.797455,191.811935 200.866226,205.057602 216.727646,218.509689 
	C226.382202,226.697723 235.147385,235.407516 238.253143,248.274368 
	C238.809891,250.580872 239.357346,252.889618 240.020477,255.663162 
	C256.945007,232.809952 262.106232,200.987289 235.730515,179.113235 
	C228.829712,173.390228 222.404968,167.028946 216.222610,160.522720 
	C210.512436,154.513443 204.871628,148.269516 203.913559,139.331329 
	C203.785858,138.140106 202.420746,136.408127 201.356384,136.176224 
	C200.246552,135.934387 198.380905,136.878754 197.608414,137.888184 
	C196.342178,139.542801 195.321228,141.582932 194.849319,143.612228 
	C193.109741,151.092667 196.052902,157.654099 199.350189,164.085953 
	C200.263550,165.867599 201.226639,167.623749 202.166931,169.391602 
	C189.598389,164.014679 178.469162,157.252960 168.771469,147.605713 
	C168.477036,147.439224 168.182602,147.272751 168.000214,147.001831 
	C168.000214,147.001831 167.893539,147.112152 167.761902,146.607346 
M331.263855,304.152893 
	C331.263855,304.152893 331.236755,304.171326 331.834351,303.550995 
	C331.556091,296.705750 331.277863,289.860535 331.003448,282.999725 
	C331.003448,282.999725 330.988220,282.997253 330.663910,282.279144 
	C328.739410,282.528839 326.814941,282.778534 324.711945,283.168121 
	C324.711945,283.168121 324.738831,283.393280 324.113617,284.057648 
	C323.948303,288.054993 323.783020,292.052368 323.030823,296.566254 
	C318.074768,298.904724 316.160553,297.888062 316.013092,292.789673 
	C315.946045,290.472870 316.385406,288.046509 315.812134,285.876709 
	C315.493988,284.672668 313.531403,283.082092 312.366150,283.126831 
	C310.845642,283.185242 308.239166,284.539764 308.098145,285.601898 
	C307.602173,289.338287 307.573181,293.242218 308.093750,296.981415 
	C308.753387,301.719391 313.801117,306.054688 318.100067,305.839600 
	C320.286926,305.730225 322.430420,304.755005 324.883881,304.875397 
	C327.210602,306.500061 329.425354,307.084961 331.263855,304.152893 
M396.996582,282.972504 
	C396.996582,282.972504 396.816528,282.832336 396.137329,283.207581 
	C395.951141,288.670074 395.637817,294.132904 395.650757,299.594910 
	C395.655029,301.399689 396.500732,303.202454 396.982605,305.019135 
	C396.982605,305.019135 397.002502,305.033691 397.426575,305.622162 
	C398.606506,305.653259 399.786407,305.684326 401.691559,305.609100 
	C402.302368,304.023621 403.219666,302.481232 403.449951,300.842285 
	C403.770386,298.561859 403.057159,296.031921 403.769928,293.944611 
	C404.319641,292.334808 406.388641,290.205872 407.771790,290.213379 
	C409.128906,290.220764 411.252808,292.441101 411.647369,294.035034 
	C412.306244,296.696808 411.444427,299.724396 412.041565,302.416351 
	C412.351227,303.812195 414.306213,305.559143 415.723145,305.770294 
	C416.890442,305.944305 419.507935,304.085052 419.503998,303.135101 
	C419.482910,298.064697 419.728729,292.678436 418.070679,288.050476 
	C417.114197,285.380676 412.608459,282.164764 409.926147,282.356415 
	C405.887054,282.645020 401.987885,282.283447 397.490021,282.064728 
	C397.265717,282.322754 397.041382,282.580750 396.996582,282.972504 
M201.678909,295.870575 
	C202.758820,295.906799 203.838730,295.943024 205.056137,296.679504 
	C206.603897,298.805786 207.761093,301.497803 209.803375,302.907776 
	C212.089828,304.486298 215.125458,305.153229 217.934540,305.743866 
	C220.016922,306.181702 222.270889,305.722443 224.425690,305.915955 
	C227.555008,306.196991 229.796707,305.483337 229.809998,301.837738 
	C229.843384,292.671570 229.997086,283.498688 229.646164,274.346008 
	C229.593628,272.975494 227.122620,270.727325 225.695145,270.667023 
	C224.402359,270.612396 222.218781,272.795319 221.833282,274.341949 
	C221.186661,276.936096 221.656418,279.808533 221.656418,282.716492 
	C214.711273,281.380157 212.549042,281.733215 209.357697,285.088440 
	C207.666595,286.866394 206.399506,289.047668 204.317917,291.057861 
	C203.903152,291.035583 203.488388,291.013336 202.949860,290.256866 
	C201.443588,287.801453 200.473221,284.607605 198.319382,283.044495 
	C193.854553,279.804199 188.786041,280.576141 184.303650,283.498901 
	C179.821854,286.421295 178.263153,290.875702 179.096207,296.072266 
	C179.901428,301.095062 182.641052,305.142639 187.729889,305.807251 
	C191.963074,306.360199 196.415878,305.231567 201.331131,304.654633 
	C201.435684,304.295410 201.540237,303.936188 201.681076,303.031128 
	C201.673203,302.486481 201.665329,301.941833 201.717026,300.827057 
	C201.449203,300.581604 201.181366,300.336182 200.973175,299.997925 
	C200.973175,299.997925 200.895432,300.077087 200.916687,299.231506 
	C200.879532,298.105713 200.842377,296.979919 200.849457,295.832611 
	C200.849457,295.832611 200.872116,295.788971 201.678909,295.870575 
M362.633270,282.230408 
	C356.501007,281.562195 356.263580,281.729828 356.203033,287.479889 
	C356.156006,291.941772 356.135345,296.405853 356.220062,300.866730 
	C356.319000,306.075500 357.831390,306.966034 363.808411,304.590271 
	C363.580109,297.355347 363.351776,290.120422 362.633270,282.230408 
M168.692947,304.870789 
	C174.092957,307.025452 175.961136,305.977966 176.025528,300.558502 
	C176.112579,293.230591 176.228394,285.894867 175.958282,278.576263 
	C175.884766,276.584808 175.003281,273.700104 173.555130,272.879181 
	C170.748672,271.288300 168.295654,273.077881 166.441849,275.665466 
	C163.744385,279.430634 160.826706,283.037994 157.712906,287.090088 
	C154.430984,282.835266 151.671936,278.673737 148.272003,275.126526 
	C146.830338,273.622375 144.002472,272.766724 141.887115,272.902435 
	C140.960251,272.961914 139.604431,276.219116 139.537888,278.063751 
	C139.273880,285.382660 139.441803,292.717163 139.450439,300.045868 
	C139.453934,303.007385 139.499481,306.024872 143.634659,305.974396 
	C147.680649,305.925049 147.836075,302.950195 147.846375,299.978516 
	C147.859619,296.154938 147.849594,292.331299 147.849594,288.507690 
	C150.404495,290.223267 151.736511,292.117981 153.143982,293.954895 
	C156.451385,298.271454 158.866531,298.307312 162.187622,294.097900 
	C163.576370,292.337677 164.901566,290.527313 167.140289,287.571899 
	C167.561752,294.152710 167.884460,299.191315 168.692947,304.870789 
M58.173141,274.220551 
	C56.041882,273.747894 53.616749,272.461029 51.882069,273.087097 
	C50.714264,273.508606 50.038486,276.618958 49.980103,278.551697 
	C49.764416,285.691498 49.882893,292.841888 49.905743,299.988220 
	C49.914860,302.840210 49.609577,305.954285 53.881401,306.012909 
	C58.476818,306.075958 58.105560,302.784088 58.106022,299.746460 
	C58.106586,296.045776 58.106159,292.345093 58.106159,288.644409 
	C62.988548,293.421722 66.536797,298.627563 70.667519,303.320740 
	C72.005127,304.840454 74.863136,305.509491 77.039932,305.539703 
	C77.806259,305.550354 79.246101,302.509308 79.296791,300.828979 
	C79.532227,293.025146 79.378571,285.209839 79.385040,277.398651 
	C79.387306,274.656921 78.878906,272.421753 75.414917,272.388947 
	C71.664665,272.353455 71.150993,274.700592 71.209213,277.693207 
	C71.286987,281.690521 71.228447,285.690491 71.228447,289.689301 
	C70.776688,289.765045 70.324936,289.840820 69.873177,289.916565 
	C66.128662,284.870178 62.384148,279.823761 58.173141,274.220551 
M240.104858,302.358337 
	C246.078308,307.050507 252.725876,307.680573 258.014679,303.996979 
	C261.704681,301.426910 262.687317,297.725800 262.231323,293.471619 
	C261.824524,289.676483 259.490021,287.528595 256.045502,286.466644 
	C253.827606,285.782898 251.426804,285.578888 249.333755,284.650787 
	C248.250641,284.170502 247.659119,282.581604 246.845490,281.493622 
	C248.147354,280.738922 249.380951,279.622772 250.775620,279.359344 
	C251.673050,279.189819 252.890518,280.156372 253.819504,280.817505 
	C256.499725,282.724976 258.639862,281.391998 259.376648,279.086090 
	C259.830688,277.665039 258.640533,274.319214 257.649292,274.080902 
	C253.614258,273.110840 249.246765,272.193298 245.238358,272.805420 
	C240.963196,273.458282 238.794479,277.187836 238.665024,281.687317 
	C238.534531,286.223419 240.622879,289.338196 244.845688,290.919464 
	C247.018707,291.733124 249.425461,292.031372 251.449600,293.091431 
	C252.590240,293.688751 253.167923,295.360962 253.999207,296.548981 
	C252.689941,297.341980 251.372314,298.773987 250.073685,298.756958 
	C248.636902,298.738098 247.068588,297.579010 245.824875,296.582764 
	C243.883804,295.027954 242.134186,293.612305 239.752808,295.783691 
	C237.573044,297.771179 237.673904,299.752899 240.104858,302.358337 
M83.341599,289.061432 
	C81.065521,297.880981 85.869080,305.923462 93.387260,305.896179 
	C96.492615,305.884918 99.599739,305.845032 102.703018,305.929688 
	C105.673317,306.010712 106.908340,304.590729 106.869072,301.706635 
	C106.812660,297.564545 106.863693,293.421021 106.860435,289.278107 
	C106.854256,281.403137 106.850273,281.409760 99.180450,282.981323 
	C98.592659,283.101746 97.932129,283.047821 97.336868,282.923920 
	C89.931595,281.381989 87.995171,282.148895 83.341599,289.061432 
M287.796844,286.908142 
	C281.743134,280.084839 274.571533,279.250610 268.708069,284.687622 
	C263.490173,289.526031 263.286804,297.312744 268.242340,302.520966 
	C272.297607,306.782990 279.281342,307.543030 284.233124,304.261292 
	C289.667206,300.659943 291.059662,294.784607 287.796844,286.908142 
M368.809326,300.306976 
	C369.764862,301.226196 370.678467,302.194214 371.682922,303.056427 
	C376.810120,307.457428 384.255127,307.328400 388.863617,302.788483 
	C393.676361,298.047333 394.021698,290.573944 389.654938,285.662750 
	C384.929535,280.348175 377.960999,279.725250 372.228271,284.105011 
	C366.730621,288.305176 365.946075,291.393677 368.809326,300.306976 
M441.956818,294.781097 
	C440.044312,293.059753 438.131836,291.338409 437.022583,290.340057 
	C438.664124,288.408844 440.071777,286.752777 441.479462,285.096710 
	C439.675842,283.945862 438.003235,282.335449 436.031769,281.773315 
	C434.056335,281.210114 431.777252,281.606995 429.640717,281.737579 
	C426.197723,281.947937 423.484924,283.409760 423.022034,287.098724 
	C422.543304,290.913727 423.455750,294.295715 427.427856,296.085205 
	C429.344849,296.948792 431.205017,297.938507 434.463470,299.549866 
	C429.352844,300.467743 423.752930,294.322021 421.854492,303.635498 
	C425.596161,304.503906 429.443176,306.089691 433.313324,306.148407 
	C440.986450,306.264801 443.566223,302.795502 441.956818,294.781097 
M338.920380,276.009216 
	C338.920380,277.815033 338.920380,279.620880 338.920380,281.426697 
	C338.515076,281.281128 338.109802,281.135529 337.704498,280.989960 
	C336.656311,282.496033 334.614166,284.131165 334.789062,285.478516 
	C335.062805,287.587341 336.835693,289.501587 337.973572,291.498260 
	C338.891235,293.422638 338.771790,295.753204 338.915222,298.067474 
	C339.251221,303.489502 344.019196,307.164459 349.318085,305.896088 
	C350.454498,305.624023 351.947144,304.199829 352.102264,303.135376 
	C352.297211,301.797577 351.475861,299.143585 350.763397,299.024170 
	C344.341736,297.947571 347.408295,293.561035 347.793304,290.848572 
	C350.138458,289.587341 353.078552,288.207458 353.509186,286.269836 
	C354.649689,281.138153 349.646606,282.395630 347.042297,281.460510 
	C346.313324,272.844818 344.854584,271.744934 338.920380,276.009216 
M113.732399,281.425140 
	C108.953247,282.972687 108.513916,285.682495 111.142624,289.724976 
	C114.034966,294.172943 116.420158,298.949066 119.275749,303.423004 
	C121.620888,307.097168 124.841545,307.128571 127.146584,303.480499 
	C130.335800,298.433075 133.209549,293.186859 136.242706,288.040100 
	C137.703751,285.560974 137.199829,283.668304 134.733078,282.192810 
	C132.056335,280.591736 130.391266,281.708282 129.112488,284.118652 
	C127.345711,287.448853 125.556404,290.767120 123.339096,294.907745 
	C121.879967,292.361877 120.939468,290.480652 119.776543,288.748749 
	C118.075539,286.215546 116.215019,283.789429 113.732399,281.425140 
M292.875641,281.548584 
	C292.890381,287.206146 292.753906,292.869324 292.962280,298.519745 
	C293.171570,304.195496 296.129059,306.640900 301.770752,305.961029 
	C302.894623,305.825562 304.682709,304.953583 304.821320,304.180420 
	C305.117218,302.530212 304.942627,299.409241 304.243378,299.191162 
	C299.572083,297.734192 300.886627,294.106354 300.830078,291.029846 
	C300.729218,285.540222 300.728668,280.046539 300.815186,274.556580 
	C300.863159,271.512177 299.368744,270.383118 296.527222,270.440796 
	C293.761810,270.496979 292.716675,271.924011 292.859894,274.581726 
	C292.967194,276.572693 292.877563,278.574310 292.875641,281.548584 
M344.529602,318.000824 
	C343.852661,318.641968 343.175690,319.283112 342.498718,319.924255 
	C341.448822,318.650238 340.398956,317.376190 338.742859,315.366516 
	C338.742859,319.393860 338.742859,322.685913 338.742859,326.420044 
	C340.400787,324.567566 341.514221,323.323456 342.627686,322.079346 
	C343.686829,323.358398 344.745972,324.637451 346.736847,327.041656 
	C346.736847,322.878571 346.736847,319.763916 346.736847,316.649231 
	C346.014008,316.815582 345.291199,316.981934 344.529602,318.000824 
M286.524963,325.860596 
	C286.650665,324.656860 286.674866,323.432129 286.919037,322.252930 
	C288.201294,316.061035 287.266876,315.159332 281.266022,316.751465 
	C281.266022,319.820465 281.266022,322.846222 281.266022,325.871979 
	C282.966888,324.746185 284.091736,322.035309 286.524963,325.860596 
M222.677979,318.067078 
	C223.514847,317.762512 224.351730,317.457947 225.188599,317.153381 
	C225.102478,316.873444 225.016342,316.593475 224.930222,316.313538 
	C222.746948,316.313538 220.563675,316.313538 218.563416,316.313538 
	C218.563416,319.747498 218.563416,322.790619 218.563416,325.510040 
	C221.057785,325.510040 223.134155,325.510040 225.210526,325.510040 
	C225.222015,325.195984 225.233490,324.881958 225.244980,324.567902 
	C223.760330,324.174988 222.275696,323.782074 219.388474,323.017944 
	C222.009155,322.216705 223.200760,321.852386 224.060898,321.589417 
	C223.201645,320.241821 222.516449,319.167206 222.677979,318.067078 
M409.661835,317.955536 
	C407.622559,317.128235 405.583313,316.300903 403.326508,315.385345 
	C403.326508,319.752106 403.326508,322.851685 403.326508,325.951233 
	C403.629303,325.986908 403.932098,326.022583 404.234863,326.058289 
	C404.703674,325.090149 405.172455,324.122040 405.675568,323.083099 
	C406.998138,324.258728 408.122498,325.258118 409.126038,326.150116 
	C409.427307,323.394623 409.683868,321.048340 409.661835,317.955536 
M80.263496,322.183014 
	C80.414909,323.436249 80.566330,324.689484 80.752625,326.231445 
	C83.184723,326.004822 85.228401,325.814362 87.272087,325.623932 
	C87.253227,325.205048 87.234375,324.786163 87.215523,324.367249 
	C85.765633,324.084747 84.315742,323.802277 82.865845,323.519775 
	C82.840179,323.251984 82.814514,322.984222 82.788849,322.716461 
	C83.976967,322.314911 85.165085,321.913391 87.074707,321.268036 
	C85.214905,320.303802 84.015121,319.681793 82.301704,318.793457 
	C84.409760,318.153839 85.769554,317.741241 87.129349,317.328674 
	C87.075539,317.006165 87.021736,316.683655 86.967934,316.361145 
	C84.825935,316.361145 82.683937,316.361145 80.268211,316.361145 
	C80.268211,318.108887 80.268211,319.741699 80.263496,322.183014 
M162.435806,321.825012 
	C163.673279,323.345337 164.910767,324.865692 166.860657,327.261261 
	C166.860657,322.550171 166.860657,319.281921 166.860657,316.013641 
	C166.542938,315.965485 166.225220,315.917297 165.907501,315.869141 
	C165.501144,317.266174 165.094788,318.663177 164.673538,320.111420 
	C163.020630,318.619965 161.389816,317.148468 159.217880,315.188690 
	C158.680420,318.769257 158.057083,321.267181 162.435806,321.825012 
M106.618515,316.866730 
	C105.413551,316.904968 103.334358,316.584045 103.146889,317.040344 
	C102.013695,319.798553 101.313019,322.734436 100.647392,324.999512 
	C103.691956,324.999512 106.204903,324.999512 109.043999,324.999512 
	C108.419289,322.825317 107.668633,320.212830 106.618515,316.866730 
M66.428391,324.808960 
	C66.428391,321.890228 66.428391,318.971466 66.428391,316.052734 
	C66.039970,316.076385 65.651550,316.100006 65.263130,316.123657 
	C64.228951,317.388824 63.194767,318.654022 62.160591,319.919189 
	C61.118813,318.657257 60.077034,317.395294 58.496704,315.480988 
	C58.496704,319.335480 58.496704,322.630035 58.496704,325.924561 
	C59.663483,325.572388 59.812290,325.001129 60.136444,324.558167 
	C60.768822,323.694031 61.499275,322.901672 62.189117,322.079559 
	C62.853317,322.916016 63.437664,323.837830 64.209259,324.559418 
	C64.740524,325.056213 65.531319,325.275421 66.428391,324.808960 
M380.728546,324.401001 
	C380.999451,324.893097 381.327759,325.834625 381.532471,325.808472 
	C383.837982,325.513947 386.124512,325.070801 388.912415,324.580200 
	C388.425598,322.881256 387.781433,320.232666 386.863129,317.682800 
	C386.602295,316.958466 385.386108,315.945068 384.884705,316.081421 
	C384.024658,316.315338 383.089539,317.219940 382.709595,318.075500 
	C381.915497,319.863586 381.462524,321.803131 380.728546,324.401001 
M245.729507,316.075500 
	C244.856934,317.872345 243.984360,319.669220 242.832031,322.042175 
	C241.741882,319.566223 240.914612,317.687317 240.087341,315.808380 
	C239.448364,316.083466 238.809372,316.358551 238.170395,316.633606 
	C239.599472,319.759033 241.028534,322.884460 242.457611,326.009888 
	C243.787888,323.642181 245.206879,321.317749 246.395416,318.880890 
	C246.761627,318.130005 246.498932,317.072418 245.729507,316.075500 
M263.070679,326.027832 
	C264.556854,325.925720 266.043030,325.823578 267.529205,325.721436 
	C267.525177,325.341034 267.521118,324.960632 267.517090,324.580231 
	C266.005707,324.196808 264.494324,323.813385 261.707611,323.106415 
	C264.259399,322.200348 265.527496,321.750092 267.510406,321.046021 
	C265.419556,320.292175 264.189362,319.848663 261.891815,319.020294 
	C264.451538,318.210907 265.900085,317.752838 267.348663,317.294800 
	C267.292480,316.990692 267.236328,316.686584 267.180145,316.382477 
	C265.092987,316.382477 263.005798,316.382477 260.057526,316.382477 
	C260.892548,319.888184 261.623291,322.956238 263.070679,326.027832 
M308.422668,315.949432 
	C307.448639,316.995850 306.474609,318.042267 305.577301,319.006256 
	C304.517395,317.894714 303.457153,316.782806 302.396942,315.670929 
	C302.101013,315.912659 301.805115,316.154388 301.509216,316.396088 
	C302.752136,319.670319 303.995056,322.944550 305.739014,327.538574 
	C307.148193,322.798798 308.146729,319.440216 308.422668,315.949432 
M180.964584,320.043091 
	C180.747757,323.909851 182.430374,326.184692 186.444321,325.924286 
	C190.267303,325.676270 190.299164,323.126587 189.376724,319.955048 
	C188.145370,320.067841 186.940643,320.178192 185.108704,320.346008 
	C186.206284,321.605194 186.853439,322.347626 188.019257,323.685089 
	C182.408096,324.275940 183.638489,320.302887 182.096954,317.129181 
	C181.759476,317.870209 181.421997,318.611237 180.964584,320.043091 
M363.727142,323.894867 
	C364.622070,322.895813 365.516968,321.896759 366.547668,320.746124 
	C365.505066,320.320648 364.213287,319.793427 361.982361,318.882935 
	C364.476959,318.151276 365.930939,317.724854 367.384918,317.298431 
	C367.316589,316.970856 367.248260,316.643250 367.179962,316.315674 
	C365.177734,316.315674 363.175507,316.315674 361.156311,316.315674 
	C361.156311,319.607239 361.156311,322.787994 361.156311,326.130066 
	C363.546509,325.994751 365.511047,325.883545 367.475586,325.772339 
	C367.480591,325.366882 367.485596,324.961426 367.490631,324.556000 
	C366.502838,324.357849 365.515045,324.159729 363.727142,323.894867 
M126.671288,326.113403 
	C127.456352,325.842896 128.241425,325.572388 130.331833,324.852081 
	C127.673813,324.130402 126.379486,323.778992 125.131020,323.440033 
	C124.914169,320.849274 124.708595,318.393219 124.503021,315.937164 
	C123.982193,315.928894 123.461357,315.920654 122.940529,315.912384 
	C121.226692,318.985565 122.544159,322.470947 122.179688,325.924500 
	C123.598610,325.997894 124.739250,326.056885 126.671288,326.113403 
M426.120636,322.382019 
	C426.285858,323.610504 426.451111,324.839020 426.616333,326.067505 
	C426.922302,326.036957 427.228271,326.006409 427.534241,325.975861 
	C428.456573,322.846252 429.378906,319.716644 430.348846,316.425598 
	C428.571991,316.425598 425.941803,316.425598 423.918610,316.425598 
	C424.730713,318.304413 425.425720,319.912262 426.120636,322.382019 
M359.257751,277.530975 
	C361.421753,276.993073 364.693970,277.317322 363.248413,273.533844 
	C362.801331,272.363739 361.108154,271.180206 359.828278,270.972809 
	C358.806732,270.807251 356.505524,272.274017 356.576904,272.739563 
	C356.850586,274.524780 357.851807,276.198486 359.257751,277.530975 
M142.160934,323.824707 
	C142.629929,324.543732 143.098923,325.262726 143.567917,325.981750 
	C143.995392,325.399963 144.762161,324.834991 144.791962,324.233490 
	C144.925858,321.531677 144.850327,318.819427 144.850327,316.110962 
	C144.160187,316.053345 143.470047,315.995758 142.779922,315.938141 
	C142.571381,318.304230 142.362839,320.670288 142.160934,323.824707 
z"/>
<path fill="#EC0E63" opacity="1.000000" stroke="none" 
	d="
M337.195007,165.566864 
	C337.195007,165.566864 337.252289,165.802597 336.844604,166.032562 
	C334.349548,169.728073 332.120361,173.118866 330.236298,176.691635 
	C329.331299,178.407837 329.078217,180.467804 328.529907,182.372086 
	C328.529907,182.372086 328.450745,182.422531 328.088135,182.346619 
	C326.496094,184.533340 325.266663,186.795990 324.037231,189.058640 
	C324.037231,189.058640 324.000397,189.004562 323.680115,189.048294 
	C322.897949,190.051590 322.436096,191.011154 321.974274,191.970734 
	C321.974274,191.970734 322.002014,191.996140 321.756439,192.101242 
	C321.354797,192.500626 321.198761,192.794922 321.042725,193.089218 
	C321.042725,193.089218 321.013763,193.013428 320.684631,193.050232 
	C319.581329,194.409744 318.807190,195.732437 318.033020,197.055115 
	C318.033051,197.055130 317.998993,197.004440 317.686646,197.042786 
	C316.678223,198.170334 315.982178,199.259537 315.286133,200.348724 
	C315.286133,200.348740 315.223480,200.207306 314.988953,200.273117 
	C314.641052,200.688583 314.527649,201.038239 314.414215,201.387878 
	C314.272034,201.276245 314.129822,201.164597 313.893311,201.209991 
	C313.700592,201.712982 313.602203,202.058899 313.503784,202.404831 
	C313.503784,202.404831 313.200470,202.306183 313.007935,202.347321 
	C312.557739,202.944397 312.300079,203.500336 312.042389,204.056274 
	C312.042389,204.056274 311.999573,204.006241 311.784271,204.108337 
	C311.394348,204.503876 311.219696,204.797302 311.045044,205.090729 
	C311.045044,205.090729 311.020447,205.007858 310.702393,205.040863 
	C306.574249,208.424149 302.654419,211.660675 299.007629,215.180145 
	C297.527802,216.608307 296.642578,218.652573 295.486786,220.416489 
	C295.486786,220.416489 295.400665,220.400589 295.036743,220.315857 
	C293.807465,221.191498 292.942139,222.151855 292.076813,223.112228 
	C292.076813,223.112228 292.023315,223.034271 291.813141,223.117279 
	C291.408295,223.483200 291.213654,223.766129 291.018982,224.049057 
	C291.018982,224.049057 291.000549,223.999207 290.783722,224.084595 
	C290.359985,224.428696 290.153076,224.687424 289.946167,224.946152 
	C289.946167,224.946152 289.811371,225.156921 289.288330,225.195694 
	C287.725189,226.308258 286.685120,227.382065 285.645050,228.455872 
	C285.645050,228.455872 285.526001,228.487198 285.132111,228.436340 
	C283.839081,229.282013 282.939972,230.178558 282.040833,231.075089 
	C282.040833,231.075089 282.011475,231.002075 281.678284,230.993530 
	C280.790405,229.551422 280.235657,228.117859 279.680908,226.684280 
	C279.680939,226.684280 279.925537,226.803711 280.092926,226.741592 
	C280.386505,226.332809 280.512695,225.986160 280.638885,225.639496 
	C280.638885,225.639496 280.811401,225.873245 281.030579,225.757538 
	C281.489136,225.077423 281.728485,224.513016 281.967834,223.948593 
	C281.967834,223.948593 282.001038,223.995972 282.219360,223.894058 
	C282.609131,223.496078 282.780640,223.200027 282.952118,222.903961 
	C282.952118,222.903961 282.976837,222.987152 283.289551,222.941223 
	C283.990204,222.178085 284.378174,221.460892 284.766144,220.743698 
	C284.766144,220.743698 284.859650,220.849899 285.076233,220.765381 
	C285.396606,220.332306 285.500397,219.983719 285.604187,219.635147 
	C285.604187,219.635147 285.769623,220.018036 286.000488,219.822723 
	C286.475708,219.066864 286.720093,218.506302 286.964447,217.945740 
	C286.964447,217.945740 287.002228,217.994278 287.341614,217.962296 
	C288.273407,216.821503 288.865845,215.712677 289.458252,214.603867 
	C289.458252,214.603867 289.553894,214.640793 289.905518,214.643036 
	C292.807617,210.724258 295.358093,206.803238 297.908569,202.882233 
	C297.908569,202.882233 297.968842,202.981735 298.273560,202.933197 
	C300.004608,200.221252 301.430908,197.557816 302.857239,194.894394 
	C303.058502,194.365616 303.259796,193.836853 304.061218,193.115356 
	C305.554321,190.835678 306.447357,188.748749 307.340393,186.661819 
	C307.340393,186.661819 307.410187,186.519592 307.805298,186.549377 
	C309.162231,185.305023 310.510864,184.169464 311.024872,182.734863 
	C315.234497,170.985916 320.682587,159.815491 322.543060,147.054153 
	C323.609680,139.737961 323.627014,133.115158 321.866058,126.301857 
	C321.197571,123.715317 319.273102,121.453392 317.921082,119.043518 
	C317.921082,119.043518 317.995300,119.010376 317.993347,118.639191 
	C317.164368,117.388924 316.337341,116.509842 315.510315,115.630768 
	C315.510315,115.630768 315.470398,115.511459 315.574951,115.120056 
	C314.990479,114.294983 314.301483,113.861313 313.612457,113.427650 
	C313.612457,113.427650 313.728180,113.456970 313.687073,113.119644 
	C313.302124,112.650421 312.958282,112.518532 312.614410,112.386642 
	C312.614410,112.386642 312.876343,112.186058 312.757050,111.977661 
	C312.076263,111.521149 311.514740,111.273026 310.953247,111.024902 
	C310.953247,111.024902 310.995117,110.995903 310.956818,110.657166 
	C306.802246,108.224525 302.826996,104.717247 298.544434,104.289902 
	C282.908112,102.729584 267.430145,104.123917 252.998230,111.099289 
	C249.124329,112.971657 245.662216,115.696030 242.011078,118.029274 
	C242.011078,118.029274 242.001953,117.996361 241.659729,117.992813 
	C240.540421,118.656242 239.763336,119.323212 238.986267,119.990181 
	C238.986267,119.990181 238.998779,119.999695 238.630478,119.976212 
	C235.795044,117.656097 233.327911,115.359459 230.860764,113.062820 
	C230.860764,113.062828 230.944183,113.052246 230.863129,112.834961 
	C230.491867,112.424271 230.201645,112.230881 229.911423,112.037483 
	C229.911423,112.037483 229.989044,112.015732 229.960464,111.718521 
	C229.468231,111.082214 229.004578,110.743118 228.540924,110.404030 
	C228.540924,110.404030 228.705475,110.073067 228.684769,109.882599 
	C226.144241,107.440109 223.624420,105.188087 221.104599,102.936058 
	C221.104599,102.936058 221.027237,102.985168 220.991501,102.623695 
	C220.289505,101.848358 219.623260,101.434494 218.957016,101.020630 
	C218.957016,101.020630 218.997696,100.996674 218.965500,100.654373 
	C217.830765,99.712433 216.728210,99.112793 215.625671,98.513153 
	C215.625671,98.513153 215.591476,98.427658 215.665497,98.066223 
	C213.127075,96.159409 210.514664,94.614014 207.902237,93.068626 
	C207.902237,93.068626 207.974838,93.025459 207.844131,92.737762 
	C205.443604,91.324341 203.173798,90.198608 200.903976,89.072884 
	C200.903976,89.072884 200.977280,89.025368 200.840607,88.735863 
	C197.123032,86.971397 193.542130,85.496437 189.961227,84.021484 
	C189.961227,84.021484 189.993729,83.994301 189.903931,83.694153 
	C190.420914,82.926910 191.095566,81.991730 191.623474,82.068275 
	C195.183273,82.584518 198.728058,83.240128 202.246872,83.994461 
	C207.196625,85.055565 212.152863,86.115479 217.045059,87.407852 
	C222.375977,88.816139 227.636841,90.489525 232.928253,92.047333 
	C232.928253,92.047333 232.969467,91.992989 233.050186,92.396606 
	C237.673676,95.435188 241.003174,93.348373 244.009781,90.004890 
	C244.009781,90.004890 244.001144,90.000610 244.413330,90.018852 
	C246.401154,89.676895 248.005905,89.411667 249.547119,88.939201 
	C254.810394,87.325722 260.075317,85.710083 265.288086,83.943344 
	C267.176819,83.303230 269.917999,82.620140 270.445801,81.252548 
	C270.958862,79.923248 269.386932,77.522797 268.289764,75.888664 
	C265.050110,71.063530 261.733124,66.494209 263.704956,60.017467 
	C264.811462,56.382942 264.916138,52.443409 265.472137,48.641289 
	C265.472137,48.641289 265.545013,48.572906 265.899719,48.656082 
	C268.158051,46.473068 270.061737,44.206882 271.965393,41.940697 
	C271.965393,41.940701 271.998901,41.997787 272.370300,41.996033 
	C279.209991,40.036995 285.672180,37.939476 292.535675,39.993820 
	C295.178772,40.784931 297.787262,41.691513 300.411530,42.545486 
	C300.411530,42.545490 300.471588,42.584030 300.434875,42.882103 
	C300.957275,43.434204 301.516357,43.688225 302.075439,43.942249 
	C302.075439,43.942249 302.000610,43.993702 302.010712,44.347885 
	C302.838684,45.251587 303.656555,45.801102 304.474426,46.350624 
	C304.474426,46.350624 304.550262,46.480022 304.422607,46.895012 
	C305.216339,49.397133 306.521729,51.402409 306.987305,53.586685 
	C308.399414,60.211960 309.681274,66.904938 305.343201,73.109001 
	C303.849335,75.245453 302.551788,77.519196 301.164581,79.730225 
	C303.359253,80.872498 305.466400,82.249397 307.766937,83.107948 
	C312.481506,84.867363 317.299866,86.348709 322.075470,87.944534 
	C322.075470,87.944542 322.008698,87.995071 322.056580,88.311859 
	C323.078247,89.078255 324.052032,89.527855 325.025848,89.977463 
	C325.025848,89.977463 325.000000,90.000305 325.038025,90.324127 
	C326.523193,91.624733 327.970337,92.601501 329.417450,93.578278 
	C329.308380,93.727661 329.199310,93.877045 329.234131,94.109558 
	C329.723053,94.296295 330.068054,94.399910 330.413025,94.503525 
	C330.413025,94.503517 330.455963,94.588768 330.355194,94.945801 
	C332.505310,97.881729 334.756165,100.460609 337.007050,103.039490 
	C337.007050,103.039497 337.218475,103.214348 337.151428,103.754639 
	C338.077240,105.850540 339.070099,107.406143 340.062927,108.961746 
	C340.062927,108.961746 339.998352,108.992531 340.001129,109.382317 
	C340.509399,112.183327 341.156403,114.574989 341.493042,117.009567 
	C342.391754,123.509537 344.032532,130.068649 343.732269,136.527725 
	C343.424866,143.140625 341.220001,149.675400 339.734314,156.219086 
	C339.020081,159.365021 338.049500,162.452774 337.195007,165.566864 
z"/>
<path fill="#07ADEC" opacity="1.000000" stroke="none" 
	d="
M168.925339,148.107361 
	C178.469162,157.252960 189.598389,164.014679 202.166931,169.391602 
	C201.226639,167.623749 200.263550,165.867599 199.350189,164.085953 
	C196.052902,157.654099 193.109741,151.092667 194.849319,143.612228 
	C195.321228,141.582932 196.342178,139.542801 197.608414,137.888184 
	C198.380905,136.878754 200.246552,135.934387 201.356384,136.176224 
	C202.420746,136.408127 203.785858,138.140106 203.913559,139.331329 
	C204.871628,148.269516 210.512436,154.513443 216.222610,160.522720 
	C222.404968,167.028946 228.829712,173.390228 235.730515,179.113235 
	C262.106232,200.987289 256.945007,232.809952 240.020477,255.663162 
	C239.357346,252.889618 238.809891,250.580872 238.253143,248.274368 
	C235.147385,235.407516 226.382202,226.697723 216.727646,218.509689 
	C200.866226,205.057602 184.797455,191.811935 169.547424,177.689560 
	C158.160217,167.144394 148.844681,154.712921 142.633453,140.230026 
	C138.072754,129.595703 135.877548,118.683159 138.462540,106.459244 
	C139.104553,104.168465 139.470062,102.563255 139.835587,100.958054 
	C139.943680,100.594223 140.051773,100.230400 140.434509,99.436111 
	C140.762909,98.661919 140.816666,98.318192 140.870422,97.974464 
	C140.870438,97.974464 141.027496,97.538544 141.297028,97.098160 
	C142.025299,95.440254 142.484039,94.222733 142.942780,93.005211 
	C142.942780,93.005211 143.153809,92.694946 143.586639,92.401016 
	C145.318924,92.094543 146.618393,92.081993 147.917847,92.069443 
	C147.917847,92.069443 147.996918,91.998924 147.946259,92.456314 
	C147.798111,93.899338 147.758560,94.894730 147.594543,95.869179 
	C144.343246,115.187035 151.100693,130.896240 164.940674,144.058777 
	C164.940674,144.058777 164.998383,143.998947 165.010284,144.330246 
	C165.643860,145.143463 166.265533,145.625397 166.887207,146.107315 
	C166.887207,146.107315 166.989975,146.013519 167.006165,146.309601 
	C167.312744,146.774506 167.603134,146.943329 167.893539,147.112152 
	C167.893539,147.112152 168.000214,147.001831 168.019302,147.305542 
	C168.334045,147.775284 168.629684,147.941330 168.925339,148.107361 
z"/>
<path fill="#14ABE6" opacity="1.000000" stroke="none" 
	d="
M168.450043,304.550354 
	C167.884460,299.191315 167.561752,294.152710 167.140289,287.571899 
	C164.901566,290.527313 163.576370,292.337677 162.187622,294.097900 
	C158.866531,298.307312 156.451385,298.271454 153.143982,293.954895 
	C151.736511,292.117981 150.404495,290.223267 147.849594,288.507690 
	C147.849594,292.331299 147.859619,296.154938 147.846375,299.978516 
	C147.836075,302.950195 147.680649,305.925049 143.634659,305.974396 
	C139.499481,306.024872 139.453934,303.007385 139.450439,300.045868 
	C139.441803,292.717163 139.273880,285.382660 139.537888,278.063751 
	C139.604431,276.219116 140.960251,272.961914 141.887115,272.902435 
	C144.002472,272.766724 146.830338,273.622375 148.272003,275.126526 
	C151.671936,278.673737 154.430984,282.835266 157.712906,287.090088 
	C160.826706,283.037994 163.744385,279.430634 166.441849,275.665466 
	C168.295654,273.077881 170.748672,271.288300 173.555130,272.879181 
	C175.003281,273.700104 175.884766,276.584808 175.958282,278.576263 
	C176.228394,285.894867 176.112579,293.230591 176.025528,300.558502 
	C175.961136,305.977966 174.092957,307.025452 168.450043,304.550354 
z"/>
<path fill="#13AAE6" opacity="1.000000" stroke="none" 
	d="
M58.406387,274.498962 
	C62.384148,279.823761 66.128662,284.870178 69.873177,289.916565 
	C70.324936,289.840820 70.776688,289.765045 71.228447,289.689301 
	C71.228447,285.690491 71.286987,281.690521 71.209213,277.693207 
	C71.150993,274.700592 71.664665,272.353455 75.414917,272.388947 
	C78.878906,272.421753 79.387306,274.656921 79.385040,277.398651 
	C79.378571,285.209839 79.532227,293.025146 79.296791,300.828979 
	C79.246101,302.509308 77.806259,305.550354 77.039932,305.539703 
	C74.863136,305.509491 72.005127,304.840454 70.667519,303.320740 
	C66.536797,298.627563 62.988548,293.421722 58.106159,288.644409 
	C58.106159,292.345093 58.106586,296.045776 58.106022,299.746460 
	C58.105560,302.784088 58.476818,306.075958 53.881401,306.012909 
	C49.609577,305.954285 49.914860,302.840210 49.905743,299.988220 
	C49.882893,292.841888 49.764416,285.691498 49.980103,278.551697 
	C50.038486,276.618958 50.714264,273.508606 51.882069,273.087097 
	C53.616749,272.461029 56.041882,273.747894 58.406387,274.498962 
z"/>
<path fill="#17ABE6" opacity="1.000000" stroke="none" 
	d="
M204.941010,291.046875 
	C206.399506,289.047668 207.666595,286.866394 209.357697,285.088440 
	C212.549042,281.733215 214.711273,281.380157 221.656418,282.716492 
	C221.656418,279.808533 221.186661,276.936096 221.833282,274.341949 
	C222.218781,272.795319 224.402359,270.612396 225.695145,270.667023 
	C227.122620,270.727325 229.593628,272.975494 229.646164,274.346008 
	C229.997086,283.498688 229.843384,292.671570 229.809998,301.837738 
	C229.796707,305.483337 227.555008,306.196991 224.425690,305.915955 
	C222.270889,305.722443 220.016922,306.181702 217.934540,305.743866 
	C215.125458,305.153229 212.089828,304.486298 209.803375,302.907776 
	C207.761093,301.497803 206.603897,298.805786 205.066284,295.923737 
	C205.031281,293.794281 204.986145,292.420563 204.941010,291.046875 
M216.112579,297.651855 
	C217.896957,296.703339 220.004379,296.049133 221.285934,294.642487 
	C221.719254,294.166901 220.418823,291.031433 219.261856,290.484772 
	C218.054825,289.914429 214.782913,290.759796 214.661865,291.406830 
	C214.317596,293.246765 215.119125,295.301056 216.112579,297.651855 
z"/>
<path fill="#E01C65" opacity="1.000000" stroke="none" 
	d="
M239.864929,302.079590 
	C237.673904,299.752899 237.573044,297.771179 239.752808,295.783691 
	C242.134186,293.612305 243.883804,295.027954 245.824875,296.582764 
	C247.068588,297.579010 248.636902,298.738098 250.073685,298.756958 
	C251.372314,298.773987 252.689941,297.341980 253.999207,296.548981 
	C253.167923,295.360962 252.590240,293.688751 251.449600,293.091431 
	C249.425461,292.031372 247.018707,291.733124 244.845688,290.919464 
	C240.622879,289.338196 238.534531,286.223419 238.665024,281.687317 
	C238.794479,277.187836 240.963196,273.458282 245.238358,272.805420 
	C249.246765,272.193298 253.614258,273.110840 257.649292,274.080902 
	C258.640533,274.319214 259.830688,277.665039 259.376648,279.086090 
	C258.639862,281.391998 256.499725,282.724976 253.819504,280.817505 
	C252.890518,280.156372 251.673050,279.189819 250.775620,279.359344 
	C249.380951,279.622772 248.147354,280.738922 246.845490,281.493622 
	C247.659119,282.581604 248.250641,284.170502 249.333755,284.650787 
	C251.426804,285.578888 253.827606,285.782898 256.045502,286.466644 
	C259.490021,287.528595 261.824524,289.676483 262.231323,293.471619 
	C262.687317,297.725800 261.704681,301.426910 258.014679,303.996979 
	C252.725876,307.680573 246.078308,307.050507 239.864929,302.079590 
z"/>
<path fill="#14ABE6" opacity="1.000000" stroke="none" 
	d="
M83.516373,288.724426 
	C87.995171,282.148895 89.931595,281.381989 97.336868,282.923920 
	C97.932129,283.047821 98.592659,283.101746 99.180450,282.981323 
	C106.850273,281.409760 106.854256,281.403137 106.860435,289.278107 
	C106.863693,293.421021 106.812660,297.564545 106.869072,301.706635 
	C106.908340,304.590729 105.673317,306.010712 102.703018,305.929688 
	C99.599739,305.845032 96.492615,305.884918 93.387260,305.896179 
	C85.869080,305.923462 81.065521,297.880981 83.516373,288.724426 
M91.169739,291.460144 
	C91.635719,293.435425 91.729568,295.652954 92.771332,297.253479 
	C93.131607,297.806976 96.453125,297.367279 97.318230,296.397034 
	C98.195129,295.413574 98.243073,291.997681 97.720787,291.767822 
	C95.938805,290.983551 93.745766,291.133270 91.169739,291.460144 
z"/>
<path fill="#E11A65" opacity="1.000000" stroke="none" 
	d="
M287.993958,287.234680 
	C291.059662,294.784607 289.667206,300.659943 284.233124,304.261292 
	C279.281342,307.543030 272.297607,306.782990 268.242340,302.520966 
	C263.286804,297.312744 263.490173,289.526031 268.708069,284.687622 
	C274.571533,279.250610 281.743134,280.084839 287.993958,287.234680 
M281.597290,292.128296 
	C279.875977,291.167786 277.778656,289.099548 276.527496,289.524200 
	C274.925262,290.068054 273.191956,292.564148 273.072235,294.324860 
	C272.990906,295.521271 275.455383,297.790833 277.006073,298.013123 
	C280.359772,298.493866 282.121979,296.389984 281.597290,292.128296 
z"/>
<path fill="#E11A65" opacity="1.000000" stroke="none" 
	d="
M368.531677,300.028717 
	C365.946075,291.393677 366.730621,288.305176 372.228271,284.105011 
	C377.960999,279.725250 384.929535,280.348175 389.654938,285.662750 
	C394.021698,290.573944 393.676361,298.047333 388.863617,302.788483 
	C384.255127,307.328400 376.810120,307.457428 371.682922,303.056427 
	C370.678467,302.194214 369.764862,301.226196 368.531677,300.028717 
M382.513184,289.926208 
	C379.602661,288.302612 377.081085,289.106537 376.017700,291.993256 
	C375.486877,293.434174 376.186737,296.622925 377.173340,297.043701 
	C378.924011,297.790405 382.378571,297.801453 383.174652,296.706207 
	C384.181274,295.321228 383.242310,292.522125 382.513184,289.926208 
z"/>
<path fill="#17ABE6" opacity="1.000000" stroke="none" 
	d="
M200.771423,304.847748 
	C196.415878,305.231567 191.963074,306.360199 187.729889,305.807251 
	C182.641052,305.142639 179.901428,301.095062 179.096207,296.072266 
	C178.263153,290.875702 179.821854,286.421295 184.303650,283.498901 
	C188.786041,280.576141 193.854553,279.804199 198.319382,283.044495 
	C200.473221,284.607605 201.443588,287.801453 202.909897,290.944519 
	C202.203995,293.017761 201.538055,294.403351 200.872116,295.788971 
	C200.872116,295.788971 200.849457,295.832611 200.380295,295.884888 
	C195.952621,296.166931 191.994110,296.396667 188.035599,296.626434 
	C187.988190,297.256287 187.940765,297.886139 187.893341,298.515961 
	C190.223572,298.851318 192.549026,299.225861 194.885452,299.510040 
	C196.882233,299.752869 198.891617,299.892029 200.895432,300.077087 
	C200.895432,300.077087 200.973175,299.997925 201.003967,300.296722 
	C201.242325,300.862732 201.449890,301.129974 201.657440,301.397186 
	C201.665329,301.941833 201.673203,302.486481 201.443787,303.457275 
	C201.061478,304.204895 200.916443,304.526306 200.771423,304.847748 
M193.811066,288.895538 
	C190.509720,287.681732 188.664688,289.089722 187.402206,292.169495 
	C193.760391,293.349701 194.294724,293.114166 193.811066,288.895538 
z"/>
<path fill="#DD2165" opacity="1.000000" stroke="none" 
	d="
M442.090668,295.135010 
	C443.566223,302.795502 440.986450,306.264801 433.313324,306.148407 
	C429.443176,306.089691 425.596161,304.503906 421.854492,303.635498 
	C423.752930,294.322021 429.352844,300.467743 434.463470,299.549866 
	C431.205017,297.938507 429.344849,296.948792 427.427856,296.085205 
	C423.455750,294.295715 422.543304,290.913727 423.022034,287.098724 
	C423.484924,283.409760 426.197723,281.947937 429.640717,281.737579 
	C431.777252,281.606995 434.056335,281.210114 436.031769,281.773315 
	C438.003235,282.335449 439.675842,283.945862 441.479462,285.096710 
	C440.071777,286.752777 438.664124,288.408844 437.022583,290.340057 
	C438.131836,291.338409 440.044312,293.059753 442.090668,295.135010 
z"/>
<path fill="#E11A65" opacity="1.000000" stroke="none" 
	d="
M398.028290,282.142792 
	C401.987885,282.283447 405.887054,282.645020 409.926147,282.356415 
	C412.608459,282.164764 417.114197,285.380676 418.070679,288.050476 
	C419.728729,292.678436 419.482910,298.064697 419.503998,303.135101 
	C419.507935,304.085052 416.890442,305.944305 415.723145,305.770294 
	C414.306213,305.559143 412.351227,303.812195 412.041565,302.416351 
	C411.444427,299.724396 412.306244,296.696808 411.647369,294.035034 
	C411.252808,292.441101 409.128906,290.220764 407.771790,290.213379 
	C406.388641,290.205872 404.319641,292.334808 403.769928,293.944611 
	C403.057159,296.031921 403.770386,298.561859 403.449951,300.842285 
	C403.219666,302.481232 402.302368,304.023621 401.064209,305.442017 
	C399.292084,305.194519 398.147278,305.114105 397.002502,305.033691 
	C397.002502,305.033691 396.982605,305.019135 396.990540,304.544495 
	C396.937866,296.990692 396.877197,289.911499 396.816528,282.832336 
	C396.816528,282.832336 396.996582,282.972504 397.154999,282.887268 
	C397.642059,282.680267 397.880341,282.460510 398.028290,282.142792 
z"/>
<path fill="#E01C65" opacity="1.000000" stroke="none" 
	d="
M338.997284,275.608887 
	C344.854584,271.744934 346.313324,272.844818 347.042297,281.460510 
	C349.646606,282.395630 354.649689,281.138153 353.509186,286.269836 
	C353.078552,288.207458 350.138458,289.587341 347.793304,290.848572 
	C347.408295,293.561035 344.341736,297.947571 350.763397,299.024170 
	C351.475861,299.143585 352.297211,301.797577 352.102264,303.135376 
	C351.947144,304.199829 350.454498,305.624023 349.318085,305.896088 
	C344.019196,307.164459 339.251221,303.489502 338.915222,298.067474 
	C338.771790,295.753204 338.891235,293.422638 337.973572,291.498260 
	C336.835693,289.501587 335.062805,287.587341 334.789062,285.478516 
	C334.614166,284.131165 336.656311,282.496033 337.704498,280.989960 
	C338.109802,281.135529 338.515076,281.281128 338.920380,281.426697 
	C338.920380,279.620880 338.920380,277.815033 338.997284,275.608887 
z"/>
<path fill="#17ABE6" opacity="1.000000" stroke="none" 
	d="
M114.077438,281.371399 
	C116.215019,283.789429 118.075539,286.215546 119.776543,288.748749 
	C120.939468,290.480652 121.879967,292.361877 123.339096,294.907745 
	C125.556404,290.767120 127.345711,287.448853 129.112488,284.118652 
	C130.391266,281.708282 132.056335,280.591736 134.733078,282.192810 
	C137.199829,283.668304 137.703751,285.560974 136.242706,288.040100 
	C133.209549,293.186859 130.335800,298.433075 127.146584,303.480499 
	C124.841545,307.128571 121.620888,307.097168 119.275749,303.423004 
	C116.420158,298.949066 114.034966,294.172943 111.142624,289.724976 
	C108.513916,285.682495 108.953247,282.972687 114.077438,281.371399 
z"/>
<path fill="#E21764" opacity="1.000000" stroke="none" 
	d="
M324.593536,304.171204 
	C322.430420,304.755005 320.286926,305.730225 318.100067,305.839600 
	C313.801117,306.054688 308.753387,301.719391 308.093750,296.981415 
	C307.573181,293.242218 307.602173,289.338287 308.098145,285.601898 
	C308.239166,284.539764 310.845642,283.185242 312.366150,283.126831 
	C313.531403,283.082092 315.493988,284.672668 315.812134,285.876709 
	C316.385406,288.046509 315.946045,290.472870 316.013092,292.789673 
	C316.160553,297.888062 318.074768,298.904724 323.652527,296.136169 
	C324.429077,291.601837 324.583954,287.497559 324.738831,283.393280 
	C324.738831,283.393280 324.711945,283.168121 325.239136,283.095032 
	C327.506958,283.013733 329.247589,283.005493 330.988220,282.997253 
	C330.988220,282.997253 331.003448,282.999725 330.980194,283.474365 
	C331.050232,290.689789 331.143494,297.430573 331.236755,304.171326 
	C331.236755,304.171326 331.263855,304.152893 330.886292,304.234955 
	C328.536987,304.268433 326.565247,304.219818 324.593536,304.171204 
z"/>
<path fill="#E31C69" opacity="1.000000" stroke="none" 
	d="
M292.875610,281.059875 
	C292.877563,278.574310 292.967194,276.572693 292.859894,274.581726 
	C292.716675,271.924011 293.761810,270.496979 296.527222,270.440796 
	C299.368744,270.383118 300.863159,271.512177 300.815186,274.556580 
	C300.728668,280.046539 300.729218,285.540222 300.830078,291.029846 
	C300.886627,294.106354 299.572083,297.734192 304.243378,299.191162 
	C304.942627,299.409241 305.117218,302.530212 304.821320,304.180420 
	C304.682709,304.953583 302.894623,305.825562 301.770752,305.961029 
	C296.129059,306.640900 293.171570,304.195496 292.962280,298.519745 
	C292.753906,292.869324 292.890381,287.206146 292.875610,281.059875 
z"/>
<path fill="#B9F6FC" opacity="1.000000" stroke="none" 
	d="
M165.032196,143.688629 
	C151.100693,130.896240 144.343246,115.187035 147.594543,95.869179 
	C147.758560,94.894730 147.798111,93.899338 147.909241,92.493416 
	C148.108719,94.052628 148.464737,96.033974 148.443298,98.011215 
	C148.404236,101.613976 148.021072,105.215996 148.071503,108.814255 
	C148.081787,109.548973 149.369492,110.265785 150.522095,111.355888 
	C151.240997,114.583481 151.506149,117.446037 151.850616,120.649155 
	C154.252762,125.289337 156.575546,129.588959 158.898346,133.888596 
	C159.279739,133.694229 159.661148,133.499863 160.042557,133.305496 
	C160.042557,131.852219 160.042557,130.398956 160.083466,128.516754 
	C160.051575,122.025803 159.978745,115.963760 159.905930,109.901718 
	C160.061981,111.433342 160.218018,112.964966 160.711105,115.197784 
	C161.743027,120.599915 162.437897,125.300858 163.110291,130.244507 
	C163.099213,130.868408 163.290939,131.100449 163.614944,131.298431 
	C163.566879,131.413528 163.703735,131.622070 163.722107,131.947296 
	C164.165039,133.577438 164.589584,134.882339 165.014130,136.187241 
	C165.336960,136.137390 165.659805,136.087524 165.982635,136.037674 
	C165.982635,132.360153 165.982635,128.682632 166.039551,124.782257 
	C166.096466,124.559387 166.073730,124.099907 166.262329,124.042328 
	C166.450928,123.984741 166.841141,123.927429 166.841141,123.927429 
	C168.636871,130.600861 168.246658,137.080688 165.032196,143.688629 
z"/>
<path fill="#D42C6B" opacity="1.000000" stroke="none" 
	d="
M242.368469,117.979034 
	C245.662216,115.696030 249.124329,112.971657 252.998230,111.099289 
	C267.430145,104.123917 282.908112,102.729584 298.544434,104.289902 
	C302.826996,104.717247 306.802246,108.224525 310.949280,110.681458 
	C296.130493,102.237831 280.553436,104.355331 265.173248,108.707718 
	C257.440247,110.896057 250.192841,114.800438 242.368469,117.979034 
z"/>
<path fill="#D42C6B" opacity="1.000000" stroke="none" 
	d="
M317.977844,119.417725 
	C319.273102,121.453392 321.197571,123.715317 321.866058,126.301857 
	C323.627014,133.115158 323.609680,139.737961 322.543060,147.054153 
	C320.682587,159.815491 315.234497,170.985916 311.024872,182.734863 
	C310.510864,184.169464 309.162231,185.305023 307.836731,186.476669 
	C311.764984,174.728928 316.616821,163.251907 320.181335,151.388123 
	C323.347748,140.849365 322.970581,130.036224 317.977844,119.417725 
z"/>
<path fill="#D42C6B" opacity="1.000000" stroke="none" 
	d="
M265.221588,48.860100 
	C264.916138,52.443409 264.811462,56.382942 263.704956,60.017467 
	C261.733124,66.494209 265.050110,71.063530 268.289764,75.888664 
	C269.386932,77.522797 270.958862,79.923248 270.445801,81.252548 
	C269.917999,82.620140 267.176819,83.303230 265.288086,83.943344 
	C260.075317,85.710083 254.810394,87.325722 249.547119,88.939201 
	C248.005905,89.411667 246.401154,89.676895 244.413055,90.022820 
	C252.483749,86.843605 260.966919,83.678665 269.694061,80.422707 
	C261.238464,71.260696 258.251678,60.874317 265.221588,48.860100 
z"/>
<path fill="#D42C6B" opacity="1.000000" stroke="none" 
	d="
M321.897186,87.652153 
	C317.299866,86.348709 312.481506,84.867363 307.766937,83.107948 
	C305.466400,82.249397 303.359253,80.872498 301.164581,79.730225 
	C302.551788,77.519196 303.849335,75.245453 305.343201,73.109001 
	C309.681274,66.904938 308.399414,60.211960 306.987305,53.586685 
	C306.521729,51.402409 305.216339,49.397133 304.473633,46.949989 
	C312.356476,56.241699 311.936890,65.009056 303.265320,79.333542 
	C309.389557,81.997215 315.554230,84.678497 321.897186,87.652153 
z"/>
<path fill="#13AAE6" opacity="1.000000" stroke="none" 
	d="
M163.132767,130.001801 
	C162.437897,125.300858 161.743027,120.599915 160.994629,115.453323 
	C162.151352,113.946312 163.219086,112.603905 164.609894,111.898613 
	C166.158218,111.113441 168.000610,110.908203 169.714996,110.450500 
	C169.529312,112.088821 169.343643,113.727142 168.830505,115.904526 
	C168.312546,117.281021 168.122040,118.118446 167.931549,118.955879 
	C167.931549,118.955879 167.741486,119.254227 167.512024,119.495537 
	C167.282562,119.736847 166.943237,119.962494 166.684937,120.219887 
	C166.308990,121.684822 166.191360,122.892365 166.073730,124.099907 
	C166.073730,124.099907 166.096466,124.559387 165.761322,125.044266 
	C164.852051,127.560127 164.277893,129.591095 163.703735,131.622070 
	C163.703735,131.622070 163.566879,131.413528 163.648071,131.061859 
	C163.634781,130.386185 163.435944,130.150055 163.132767,130.001801 
z"/>
<path fill="#D42C6B" opacity="1.000000" stroke="none" 
	d="
M232.695084,91.795639 
	C227.636841,90.489525 222.375977,88.816139 217.045059,87.407852 
	C212.152863,86.115479 207.196625,85.055565 202.246872,83.994461 
	C198.728058,83.240128 195.183273,82.584518 191.623474,82.068275 
	C191.095566,81.991730 190.420914,82.926910 189.902298,83.715240 
	C186.763184,82.963776 183.535934,81.891083 180.308670,80.818382 
	C198.572830,80.412529 216.045822,83.495132 232.695084,91.795639 
z"/>
<path fill="#D42C6B" opacity="1.000000" stroke="none" 
	d="
M337.480194,165.318069 
	C338.049500,162.452774 339.020081,159.365021 339.734314,156.219086 
	C341.220001,149.675400 343.424866,143.140625 343.732269,136.527725 
	C344.032532,130.068649 342.391754,123.509537 341.493042,117.009567 
	C341.156403,114.574989 340.509399,112.183327 340.024506,109.355186 
	C345.305389,118.485626 346.103424,128.970413 344.639984,139.287735 
	C343.399811,148.030716 340.134521,156.486435 337.480194,165.318069 
z"/>
<path fill="#222025" opacity="1.000000" stroke="none" 
	d="
M344.548981,317.574524 
	C345.291199,316.981934 346.014008,316.815582 346.736847,316.649231 
	C346.736847,319.763916 346.736847,322.878571 346.736847,327.041656 
	C344.745972,324.637451 343.686829,323.358398 342.627686,322.079346 
	C341.514221,323.323456 340.400787,324.567566 338.742859,326.420044 
	C338.742859,322.685913 338.742859,319.393860 338.742859,315.366516 
	C340.398956,317.376190 341.448822,318.650238 342.498718,319.924255 
	C343.175690,319.283112 343.852661,318.641968 344.548981,317.574524 
z"/>
<path fill="#0C0E18" opacity="1.000000" stroke="none" 
	d="
M286.237976,325.591583 
	C284.091736,322.035309 282.966888,324.746185 281.266022,325.871979 
	C281.266022,322.846222 281.266022,319.820465 281.266022,316.751465 
	C287.266876,315.159332 288.201294,316.061035 286.919037,322.252930 
	C286.674866,323.432129 286.650665,324.656860 286.237976,325.591583 
z"/>
<path fill="#222025" opacity="1.000000" stroke="none" 
	d="
M222.254608,318.079834 
	C222.516449,319.167206 223.201645,320.241821 224.060898,321.589417 
	C223.200760,321.852386 222.009155,322.216705 219.388474,323.017944 
	C222.275696,323.782074 223.760330,324.174988 225.244980,324.567902 
	C225.233490,324.881958 225.222015,325.195984 225.210526,325.510040 
	C223.134155,325.510040 221.057785,325.510040 218.563416,325.510040 
	C218.563416,322.790619 218.563416,319.747498 218.563416,316.313538 
	C220.563675,316.313538 222.746948,316.313538 224.930222,316.313538 
	C225.016342,316.593475 225.102478,316.873444 225.188599,317.153381 
	C224.351730,317.457947 223.514847,317.762512 222.254608,318.079834 
z"/>
<path fill="#0C0E18" opacity="1.000000" stroke="none" 
	d="
M409.801117,318.328796 
	C409.683868,321.048340 409.427307,323.394623 409.126038,326.150116 
	C408.122498,325.258118 406.998138,324.258728 405.675568,323.083099 
	C405.172455,324.122040 404.703674,325.090149 404.234863,326.058289 
	C403.932098,326.022583 403.629303,325.986908 403.326508,325.951233 
	C403.326508,322.851685 403.326508,319.752106 403.326508,315.385345 
	C405.583313,316.300903 407.622559,317.128235 409.801117,318.328796 
z"/>
<path fill="#222025" opacity="1.000000" stroke="none" 
	d="
M80.265854,321.778748 
	C80.268211,319.741699 80.268211,318.108887 80.268211,316.361145 
	C82.683937,316.361145 84.825935,316.361145 86.967934,316.361145 
	C87.021736,316.683655 87.075539,317.006165 87.129349,317.328674 
	C85.769554,317.741241 84.409760,318.153839 82.301704,318.793457 
	C84.015121,319.681793 85.214905,320.303802 87.074707,321.268036 
	C85.165085,321.913391 83.976967,322.314911 82.788849,322.716461 
	C82.814514,322.984222 82.840179,323.251984 82.865845,323.519775 
	C84.315742,323.802277 85.765633,324.084747 87.215523,324.367249 
	C87.234375,324.786163 87.253227,325.205048 87.272087,325.623932 
	C85.228401,325.814362 83.184723,326.004822 80.752625,326.231445 
	C80.566330,324.689484 80.414909,323.436249 80.265854,321.778748 
z"/>
<path fill="#D42C6B" opacity="1.000000" stroke="none" 
	d="
M279.381775,226.820587 
	C280.235657,228.117859 280.790405,229.551422 281.709473,231.017548 
	C277.583160,233.606522 273.092529,236.162918 268.308167,238.855789 
	C268.014435,238.992249 268.060883,239.016312 268.060883,239.016312 
	C271.734802,234.996490 275.408722,230.976685 279.381775,226.820587 
z"/>
<path fill="#222025" opacity="1.000000" stroke="none" 
	d="
M162.182739,321.532288 
	C158.057083,321.267181 158.680420,318.769257 159.217880,315.188690 
	C161.389816,317.148468 163.020630,318.619965 164.673538,320.111420 
	C165.094788,318.663177 165.501144,317.266174 165.907501,315.869141 
	C166.225220,315.917297 166.542938,315.965485 166.860657,316.013641 
	C166.860657,319.281921 166.860657,322.550171 166.860657,327.261261 
	C164.910767,324.865692 163.673279,323.345337 162.182739,321.532288 
z"/>
<path fill="#222025" opacity="1.000000" stroke="none" 
	d="
M106.768250,317.233521 
	C107.668633,320.212830 108.419289,322.825317 109.043999,324.999512 
	C106.204903,324.999512 103.691956,324.999512 100.647392,324.999512 
	C101.313019,322.734436 102.013695,319.798553 103.146889,317.040344 
	C103.334358,316.584045 105.413551,316.904968 106.768250,317.233521 
z"/>
<path fill="#222025" opacity="1.000000" stroke="none" 
	d="
M66.317253,325.213806 
	C65.531319,325.275421 64.740524,325.056213 64.209259,324.559418 
	C63.437664,323.837830 62.853317,322.916016 62.189117,322.079559 
	C61.499275,322.901672 60.768822,323.694031 60.136444,324.558167 
	C59.812290,325.001129 59.663483,325.572388 58.496704,325.924561 
	C58.496704,322.630035 58.496704,319.335480 58.496704,315.480988 
	C60.077034,317.395294 61.118813,318.657257 62.160591,319.919189 
	C63.194767,318.654022 64.228951,317.388824 65.263130,316.123657 
	C65.651550,316.100006 66.039970,316.076385 66.428391,316.052734 
	C66.428391,318.971466 66.428391,321.890228 66.317253,325.213806 
z"/>
<path fill="#222025" opacity="1.000000" stroke="none" 
	d="
M380.798981,324.040741 
	C381.462524,321.803131 381.915497,319.863586 382.709595,318.075500 
	C383.089539,317.219940 384.024658,316.315338 384.884705,316.081421 
	C385.386108,315.945068 386.602295,316.958466 386.863129,317.682800 
	C387.781433,320.232666 388.425598,322.881256 388.912415,324.580200 
	C386.124512,325.070801 383.837982,325.513947 381.532471,325.808472 
	C381.327759,325.834625 380.999451,324.893097 380.798981,324.040741 
z"/>
<path fill="#CD3E6E" opacity="1.000000" stroke="none" 
	d="
M363.088287,305.079712 
	C357.831390,306.966034 356.319000,306.075500 356.220062,300.866730 
	C356.135345,296.405853 356.156006,291.941772 356.203033,287.479889 
	C356.263580,281.729828 356.501007,281.562195 362.786621,282.647034 
	C362.939941,283.063660 362.757568,283.242981 362.369507,283.170105 
	C358.890015,282.734711 357.872192,284.324280 357.926758,287.183594 
	C358.011749,291.636353 358.035248,296.093750 357.930695,300.545593 
	C357.849915,303.986633 359.176788,305.545532 362.803650,304.802002 
	C362.898163,304.894928 363.088287,305.079712 363.088287,305.079712 
z"/>
<path fill="#D42C6B" opacity="1.000000" stroke="none" 
	d="
M300.236694,42.260250 
	C297.787262,41.691513 295.178772,40.784931 292.535675,39.993820 
	C285.672180,37.939476 279.209991,40.036995 272.342346,41.978256 
	C280.321899,35.774914 290.786499,35.779675 300.236694,42.260250 
z"/>
<path fill="#222025" opacity="1.000000" stroke="none" 
	d="
M246.126846,316.115356 
	C246.498932,317.072418 246.761627,318.130005 246.395416,318.880890 
	C245.206879,321.317749 243.787888,323.642181 242.457611,326.009888 
	C241.028534,322.884460 239.599472,319.759033 238.170395,316.633606 
	C238.809372,316.358551 239.448364,316.083466 240.087341,315.808380 
	C240.914612,317.687317 241.741882,319.566223 242.832031,322.042175 
	C243.984360,319.669220 244.856934,317.872345 246.126846,316.115356 
z"/>
<path fill="#0C0E18" opacity="1.000000" stroke="none" 
	d="
M262.712372,326.026062 
	C261.623291,322.956238 260.892548,319.888184 260.057526,316.382477 
	C263.005798,316.382477 265.092987,316.382477 267.180145,316.382477 
	C267.236328,316.686584 267.292480,316.990692 267.348663,317.294800 
	C265.900085,317.752838 264.451538,318.210907 261.891815,319.020294 
	C264.189362,319.848663 265.419556,320.292175 267.510406,321.046021 
	C265.527496,321.750092 264.259399,322.200348 261.707611,323.106415 
	C264.494324,323.813385 266.005707,324.196808 267.517090,324.580231 
	C267.521118,324.960632 267.525177,325.341034 267.529205,325.721436 
	C266.043030,325.823578 264.556854,325.925720 262.712372,326.026062 
z"/>
<path fill="#373F3F" opacity="1.000000" stroke="none" 
	d="
M308.783966,316.015533 
	C308.146729,319.440216 307.148193,322.798798 305.739014,327.538574 
	C303.995056,322.944550 302.752136,319.670319 301.509216,316.396088 
	C301.805115,316.154388 302.101013,315.912659 302.396942,315.670929 
	C303.457153,316.782806 304.517395,317.894714 305.577301,319.006256 
	C306.474609,318.042267 307.448639,316.995850 308.783966,316.015533 
z"/>
<path fill="#222025" opacity="1.000000" stroke="none" 
	d="
M181.024551,319.697693 
	C181.421997,318.611237 181.759476,317.870209 182.096954,317.129181 
	C183.638489,320.302887 182.408096,324.275940 188.019257,323.685089 
	C186.853439,322.347626 186.206284,321.605194 185.108704,320.346008 
	C186.940643,320.178192 188.145370,320.067841 189.376724,319.955048 
	C190.299164,323.126587 190.267303,325.676270 186.444321,325.924286 
	C182.430374,326.184692 180.747757,323.909851 181.024551,319.697693 
z"/>
<path fill="#0C0E18" opacity="1.000000" stroke="none" 
	d="
M364.127197,323.928223 
	C365.515045,324.159729 366.502838,324.357849 367.490631,324.556000 
	C367.485596,324.961426 367.480591,325.366882 367.475586,325.772339 
	C365.511047,325.883545 363.546509,325.994751 361.156311,326.130066 
	C361.156311,322.787994 361.156311,319.607239 361.156311,316.315674 
	C363.175507,316.315674 365.177734,316.315674 367.179962,316.315674 
	C367.248260,316.643250 367.316589,316.970856 367.384918,317.298431 
	C365.930939,317.724854 364.476959,318.151276 361.982361,318.882935 
	C364.213287,319.793427 365.505066,320.320648 366.547668,320.746124 
	C365.516968,321.896759 364.622070,322.895813 364.127197,323.928223 
z"/>
<path fill="#32ACD7" opacity="1.000000" stroke="none" 
	d="
M159.974518,109.544739 
	C159.978745,115.963760 160.051575,122.025803 159.783600,128.282776 
	C156.680878,119.355621 157.461960,110.330627 160.972382,101.084457 
	C159.210266,101.188438 158.247940,101.245232 157.223297,101.235550 
	C157.160965,101.169090 157.036514,101.035965 157.036514,101.035965 
	C158.374115,100.460907 159.711700,99.885857 161.049301,99.310806 
	C161.218750,100.895256 161.658005,102.509720 161.486023,104.056198 
	C161.292252,105.798660 160.547958,107.479897 159.974518,109.544739 
z"/>
<path fill="#373F3F" opacity="1.000000" stroke="none" 
	d="
M126.275589,326.114624 
	C124.739250,326.056885 123.598610,325.997894 122.179688,325.924500 
	C122.544159,322.470947 121.226692,318.985565 122.940529,315.912384 
	C123.461357,315.920654 123.982193,315.928894 124.503021,315.937164 
	C124.708595,318.393219 124.914169,320.849274 125.131020,323.440033 
	C126.379486,323.778992 127.673813,324.130402 130.331833,324.852081 
	C128.241425,325.572388 127.456352,325.842896 126.275589,326.114624 
z"/>
<path fill="#D42C6B" opacity="1.000000" stroke="none" 
	d="
M295.790344,220.291809 
	C296.642578,218.652573 297.527802,216.608307 299.007629,215.180145 
	C302.654419,211.660675 306.574249,208.424149 310.735931,205.068130 
	C306.089661,210.097305 301.091797,215.132217 295.790344,220.291809 
z"/>
<path fill="#B9F6FC" opacity="1.000000" stroke="none" 
	d="
M200.906067,299.654297 
	C198.891617,299.892029 196.882233,299.752869 194.885452,299.510040 
	C192.549026,299.225861 190.223572,298.851318 187.893341,298.515961 
	C187.940765,297.886139 187.988190,297.256287 188.035599,296.626434 
	C191.994110,296.396667 195.952621,296.166931 200.358185,295.895630 
	C200.842377,296.979919 200.879532,298.105713 200.906067,299.654297 
z"/>
<path fill="#222025" opacity="1.000000" stroke="none" 
	d="
M426.120667,321.951080 
	C425.425720,319.912262 424.730713,318.304413 423.918610,316.425598 
	C425.941803,316.425598 428.571991,316.425598 430.348846,316.425598 
	C429.378906,319.716644 428.456573,322.846252 427.534241,325.975861 
	C427.228271,326.006409 426.922302,326.036957 426.616333,326.067505 
	C426.451111,324.839020 426.285858,323.610504 426.120667,321.951080 
z"/>
<path fill="#D42C6B" opacity="1.000000" stroke="none" 
	d="
M396.476929,283.019958 
	C396.877197,289.911499 396.937866,296.990692 396.980103,304.537994 
	C396.500732,303.202454 395.655029,301.399689 395.650757,299.594910 
	C395.637817,294.132904 395.951141,288.670074 396.476929,283.019958 
z"/>
<path fill="#E21764" opacity="1.000000" stroke="none" 
	d="
M358.919678,277.722382 
	C357.851807,276.198486 356.850586,274.524780 356.576904,272.739563 
	C356.505524,272.274017 358.806732,270.807251 359.828278,270.972809 
	C361.108154,271.180206 362.801331,272.363739 363.248413,273.533844 
	C364.693970,277.317322 361.421753,276.993073 358.919678,277.722382 
z"/>
<path fill="#373F3F" opacity="1.000000" stroke="none" 
	d="
M142.157623,323.430542 
	C142.362839,320.670288 142.571381,318.304230 142.779922,315.938141 
	C143.470047,315.995758 144.160187,316.053345 144.850327,316.110962 
	C144.850327,318.819427 144.925858,321.531677 144.791962,324.233490 
	C144.762161,324.834991 143.995392,325.399963 143.567917,325.981750 
	C143.098923,325.262726 142.629929,324.543732 142.157623,323.430542 
z"/>
<path fill="#D42C6B" opacity="1.000000" stroke="none" 
	d="
M328.777496,182.167542 
	C329.078217,180.467804 329.331299,178.407837 330.236298,176.691635 
	C332.120361,173.118866 334.349548,169.728073 336.750519,166.109100 
	C334.384430,171.291473 331.704773,176.627243 328.777496,182.167542 
z"/>
<path fill="#D42C6B" opacity="1.000000" stroke="none" 
	d="
M297.603943,203.027618 
	C295.358093,206.803238 292.807617,210.724258 289.894531,214.592957 
	C292.121033,210.751434 294.710175,206.962219 297.603943,203.027618 
z"/>
<path fill="#32ACD7" opacity="1.000000" stroke="none" 
	d="
M151.771286,120.308594 
	C151.506149,117.446037 151.240997,114.583481 150.935425,111.332214 
	C151.740784,109.095490 152.586563,107.247482 153.764130,105.233856 
	C154.095917,105.068237 154.237823,105.175438 154.157639,105.552887 
	C153.308731,110.723083 152.540009,115.515839 151.771286,120.308594 
z"/>
<path fill="#CD3E6E" opacity="1.000000" stroke="none" 
	d="
M363.031677,282.974579 
	C363.351776,290.120422 363.580109,297.355347 363.448364,304.834991 
	C363.088287,305.079712 362.898163,304.894928 362.900635,304.369507 
	C362.854584,296.977081 362.806091,290.110016 362.757568,283.242981 
	C362.757568,283.242981 362.939941,283.063660 363.031677,282.974579 
z"/>
<path fill="#D42C6B" opacity="1.000000" stroke="none" 
	d="
M230.937653,113.408585 
	C233.327911,115.359459 235.795044,117.656097 238.627914,119.969711 
	C238.109009,120.626175 237.224350,121.265663 236.172379,122.026108 
	C234.329498,119.070633 232.672028,116.412491 230.937653,113.408585 
z"/>
<path fill="#CD3E6E" opacity="1.000000" stroke="none" 
	d="
M331.535553,303.861145 
	C331.143494,297.430573 331.050232,290.689789 330.978271,283.482178 
	C331.277863,289.860535 331.556091,296.705750 331.535553,303.861145 
z"/>
<path fill="#D42C6B" opacity="1.000000" stroke="none" 
	d="
M336.966675,102.691490 
	C334.756165,100.460609 332.505310,97.881729 330.402863,94.948135 
	C332.676300,97.176781 334.801300,99.760132 336.966675,102.691490 
z"/>
<path fill="#D42C6B" opacity="1.000000" stroke="none" 
	d="
M243.636139,90.003723 
	C241.003174,93.348373 237.673676,95.435188 233.047455,92.430588 
	C236.396835,91.374817 239.829651,90.688683 243.636139,90.003723 
z"/>
<path fill="#D42C6B" opacity="1.000000" stroke="none" 
	d="
M190.171906,84.296219 
	C193.542130,85.496437 197.123032,86.971397 200.831100,88.778496 
	C197.433044,87.597404 193.907806,86.084183 190.171906,84.296219 
z"/>
<path fill="#D42C6B" opacity="1.000000" stroke="none" 
	d="
M221.245087,103.234619 
	C223.624420,105.188087 226.144241,107.440109 228.626312,110.057922 
	C226.187561,108.126854 223.786560,105.830017 221.245087,103.234619 
z"/>
<path fill="#D42C6B" opacity="1.000000" stroke="none" 
	d="
M271.637268,42.022980 
	C270.061737,44.206882 268.158051,46.473068 265.901947,48.606155 
	C267.469360,46.350460 269.389252,44.227863 271.637268,42.022980 
z"/>
<path fill="#D42C6B" opacity="1.000000" stroke="none" 
	d="
M302.554932,195.047668 
	C301.430908,197.557816 300.004608,200.221252 298.225037,202.901077 
	C299.332092,200.345306 300.792358,197.773117 302.554932,195.047668 
z"/>
<path fill="#D42C6B" opacity="1.000000" stroke="none" 
	d="
M208.061890,93.365845 
	C210.514664,94.614014 213.127075,96.159409 215.619461,98.067108 
	C213.073456,96.840645 210.647491,95.251854 208.061890,93.365845 
z"/>
<path fill="#D42C6B" opacity="1.000000" stroke="none" 
	d="
M324.335449,188.903687 
	C325.266663,186.795990 326.496094,184.533340 328.093689,182.393219 
	C327.185760,184.593399 325.909698,186.671066 324.335449,188.903687 
z"/>
<path fill="#B9F6FC" opacity="1.000000" stroke="none" 
	d="
M201.275513,295.829773 
	C201.538055,294.403351 202.203995,293.017761 202.971771,291.311615 
	C203.488388,291.013336 203.903152,291.035583 204.629456,291.052368 
	C204.986145,292.420563 205.031281,293.794281 204.997528,295.573608 
	C203.838730,295.943024 202.758820,295.906799 201.275513,295.829773 
z"/>
<path fill="#CD3E6E" opacity="1.000000" stroke="none" 
	d="
M324.426239,283.725464 
	C324.583954,287.497559 324.429077,291.601837 323.945984,295.877930 
	C323.783020,292.052368 323.948303,288.054993 324.426239,283.725464 
z"/>
<path fill="#D42C6B" opacity="1.000000" stroke="none" 
	d="
M307.129333,186.887344 
	C306.447357,188.748749 305.554321,190.835678 304.303528,192.964081 
	C304.936584,191.041321 305.927429,189.077087 307.129333,186.887344 
z"/>
<path fill="#D42C6B" opacity="1.000000" stroke="none" 
	d="
M201.058472,89.376221 
	C203.173798,90.198608 205.443604,91.324341 207.836807,92.779358 
	C205.711121,91.965614 203.462051,90.822586 201.058472,89.376221 
z"/>
<path fill="#D42C6B" opacity="1.000000" stroke="none" 
	d="
M340.041565,108.608047 
	C339.070099,107.406143 338.077240,105.850540 337.142242,103.891510 
	C338.140106,105.076843 339.080139,106.665596 340.041565,108.608047 
z"/>
<path fill="#B9F6FC" opacity="1.000000" stroke="none" 
	d="
M147.808380,91.727417 
	C146.618393,92.081993 145.318924,92.094543 143.638550,92.220734 
	C144.035934,88.732101 145.821762,89.845108 147.808380,91.727417 
z"/>
<path fill="#D42C6B" opacity="1.000000" stroke="none" 
	d="
M329.273071,93.295021 
	C327.970337,92.601501 326.523193,91.624733 325.048126,90.310196 
	C326.389679,90.985542 327.759155,91.998657 329.273071,93.295021 
z"/>
<path fill="#D42C6B" opacity="1.000000" stroke="none" 
	d="
M318.322266,196.911118 
	C318.807190,195.732437 319.581329,194.409744 320.720520,193.069107 
	C320.260925,194.289810 319.436218,195.528473 318.322266,196.911118 
z"/>
<path fill="#D42C6B" opacity="1.000000" stroke="none" 
	d="
M285.929565,228.324158 
	C286.685120,227.382065 287.725189,226.308258 289.164001,225.181686 
	C288.446533,226.150101 287.330322,227.171280 285.929565,228.324158 
z"/>
<path fill="#CD3E6E" opacity="1.000000" stroke="none" 
	d="
M324.738708,304.523315 
	C326.565247,304.219818 328.536987,304.268433 330.887024,304.252686 
	C329.425354,307.084961 327.210602,306.500061 324.738708,304.523315 
z"/>
<path fill="#D42C6B" opacity="1.000000" stroke="none" 
	d="
M292.385193,223.048859 
	C292.942139,222.151855 293.807465,221.191498 295.033508,220.359528 
	C294.493988,221.320450 293.593781,222.152969 292.385193,223.048859 
z"/>
<path fill="#D42C6B" opacity="1.000000" stroke="none" 
	d="
M315.625916,115.909271 
	C316.337341,116.509842 317.164368,117.388924 317.969696,118.672249 
	C317.212524,118.113594 316.477020,117.150688 315.625916,115.909271 
z"/>
<path fill="#D42C6B" opacity="1.000000" stroke="none" 
	d="
M215.812805,98.750275 
	C216.728210,99.112793 217.830765,99.712433 218.957825,100.676666 
	C217.988220,100.356636 216.994080,99.672012 215.812805,98.750275 
z"/>
<path fill="#D42C6B" opacity="1.000000" stroke="none" 
	d="
M289.207428,214.770569 
	C288.865845,215.712677 288.273407,216.821503 287.313385,217.950195 
	C287.616058,216.959137 288.286316,215.948212 289.207428,214.770569 
z"/>
<path fill="#B9F6FC" opacity="1.000000" stroke="none" 
	d="
M139.471527,101.060822 
	C139.470062,102.563255 139.104553,104.168465 138.511047,106.050430 
	C138.557846,104.605988 138.832642,102.884789 139.471527,101.060822 
z"/>
<path fill="#D42C6B" opacity="1.000000" stroke="none" 
	d="
M315.572876,200.214127 
	C315.982178,199.259537 316.678223,198.170334 317.714844,197.054352 
	C317.323517,198.044891 316.591583,199.062210 315.572876,200.214127 
z"/>
<path fill="#B9F6FC" opacity="1.000000" stroke="none" 
	d="
M142.589935,93.078796 
	C142.484039,94.222733 142.025299,95.440254 141.310577,96.866875 
	C141.448761,95.768112 141.842926,94.460251 142.589935,93.078796 
z"/>
<path fill="#32ACD7" opacity="1.000000" stroke="none" 
	d="
M154.025482,105.013969 
	C154.784012,103.734177 155.612961,102.508644 156.739227,101.159546 
	C157.036514,101.035965 157.160965,101.169090 157.097809,101.517006 
	C156.102386,102.968430 155.170105,104.071938 154.237823,105.175446 
	C154.237823,105.175438 154.095917,105.068237 154.025482,105.013969 
z"/>
<path fill="#D42C6B" opacity="1.000000" stroke="none" 
	d="
M282.350464,231.017426 
	C282.939972,230.178558 283.839081,229.282013 285.087769,228.479065 
	C284.511566,229.368347 283.585846,230.164047 282.350464,231.017426 
z"/>
<path fill="#CD3E6E" opacity="1.000000" stroke="none" 
	d="
M330.826050,282.638214 
	C329.247589,283.005493 327.506958,283.013733 325.328369,283.025085 
	C326.814941,282.778534 328.739410,282.528839 330.826050,282.638214 
z"/>
<path fill="#D42C6B" opacity="1.000000" stroke="none" 
	d="
M324.900330,89.687477 
	C324.052032,89.527855 323.078247,89.078255 322.074707,88.274124 
	C322.954895,88.412239 323.864868,88.904869 324.900330,89.687477 
z"/>
<path fill="#D42C6B" opacity="1.000000" stroke="none" 
	d="
M322.226440,191.792603 
	C322.436096,191.011154 322.897949,190.051590 323.709900,189.061676 
	C323.532898,189.892365 323.005737,190.753418 322.226440,191.792603 
z"/>
<path fill="#D42C6B" opacity="1.000000" stroke="none" 
	d="
M239.300156,119.957291 
	C239.763336,119.323212 240.540421,118.656242 241.674103,118.002251 
	C241.225159,118.651627 240.419601,119.288010 239.300156,119.957291 
z"/>
<path fill="#D42C6B" opacity="1.000000" stroke="none" 
	d="
M304.360840,46.083424 
	C303.656555,45.801102 302.838684,45.251587 302.039429,44.312668 
	C302.787811,44.554253 303.517548,45.185242 304.360840,46.083424 
z"/>
<path fill="#D42C6B" opacity="1.000000" stroke="none" 
	d="
M268.002441,238.968994 
	C267.797089,239.523285 267.603729,240.100845 267.410370,240.678406 
	C267.179321,240.514435 266.948303,240.350464 266.717255,240.186493 
	C267.034332,239.891693 267.351379,239.596878 267.864655,239.159180 
	C268.060883,239.016312 268.014435,238.992249 268.002441,238.968994 
z"/>
<path fill="#D42C6B" opacity="1.000000" stroke="none" 
	d="
M284.488770,220.859863 
	C284.378174,221.460892 283.990204,222.178085 283.253845,222.916580 
	C283.340729,222.283936 283.776031,221.629974 284.488770,220.859863 
z"/>
<path fill="#B9F6FC" opacity="1.000000" stroke="none" 
	d="
M166.887375,145.772354 
	C166.265533,145.625397 165.643860,145.143463 164.978653,144.357727 
	C165.585922,144.515060 166.236740,144.976227 166.887375,145.772354 
z"/>
<path fill="#32ACD7" opacity="1.000000" stroke="none" 
	d="
M166.262329,124.042328 
	C166.191360,122.892365 166.308990,121.684822 166.732391,120.495468 
	C167.088455,120.692986 167.138779,120.872322 167.189087,121.051651 
	C167.085037,121.769516 166.980988,122.487389 166.859039,123.566345 
	C166.841141,123.927429 166.450928,123.984741 166.262329,124.042328 
z"/>
<path fill="#D42C6B" opacity="1.000000" stroke="none" 
	d="
M397.214539,305.327942 
	C398.147278,305.114105 399.292084,305.194519 400.701599,305.495178 
	C399.786407,305.684326 398.606506,305.653259 397.214539,305.327942 
z"/>
<path fill="#D42C6B" opacity="1.000000" stroke="none" 
	d="
M313.709106,113.684799 
	C314.301483,113.861313 314.990479,114.294983 315.521332,115.087166 
	C314.844025,114.944443 314.324890,114.443199 313.709106,113.684799 
z"/>
<path fill="#D42C6B" opacity="1.000000" stroke="none" 
	d="
M219.070496,101.291985 
	C219.623260,101.434494 220.289505,101.848358 221.007507,102.580765 
	C220.434174,102.453987 219.809067,102.008659 219.070496,101.291985 
z"/>
<path fill="#B9F6FC" opacity="1.000000" stroke="none" 
	d="
M168.209015,118.773682 
	C168.122040,118.118446 168.312546,117.281021 168.765289,116.241951 
	C168.847168,116.890709 168.666824,117.741096 168.209015,118.773682 
z"/>
<path fill="#D42C6B" opacity="1.000000" stroke="none" 
	d="
M281.701813,224.068604 
	C281.728485,224.513016 281.489136,225.077423 280.921417,225.661728 
	C280.873962,225.183945 281.154877,224.686279 281.701813,224.068604 
z"/>
<path fill="#D42C6B" opacity="1.000000" stroke="none" 
	d="
M301.975159,43.675751 
	C301.516357,43.688225 300.957275,43.434204 300.429016,42.846912 
	C300.931519,42.812180 301.403198,43.110714 301.975159,43.675751 
z"/>
<path fill="#D42C6B" opacity="1.000000" stroke="none" 
	d="
M311.077576,111.285789 
	C311.514740,111.273026 312.076263,111.521149 312.645813,112.099472 
	C312.169861,112.135345 311.685883,111.841011 311.077576,111.285789 
z"/>
<path fill="#D42C6B" opacity="1.000000" stroke="none" 
	d="
M228.629410,110.675507 
	C229.004578,110.743118 229.468231,111.082214 229.938293,111.752182 
	C229.535767,111.704361 229.126831,111.325676 228.629410,110.675507 
z"/>
<path fill="#D42C6B" opacity="1.000000" stroke="none" 
	d="
M286.704346,218.070175 
	C286.720093,218.506302 286.475708,219.066864 285.902039,219.638824 
	C285.863220,219.165024 286.153717,218.679825 286.704346,218.070175 
z"/>
<path fill="#D42C6B" opacity="1.000000" stroke="none" 
	d="
M312.309692,203.957596 
	C312.300079,203.500336 312.557739,202.944397 313.147705,202.424103 
	C313.178986,202.926147 312.877991,203.392532 312.309692,203.957596 
z"/>
<path fill="#B9F6FC" opacity="1.000000" stroke="none" 
	d="
M168.848404,147.856537 
	C168.629684,147.941330 168.334045,147.775284 167.963287,147.357758 
	C168.182602,147.272751 168.477036,147.439224 168.848404,147.856537 
z"/>
<path fill="#B9F6FC" opacity="1.000000" stroke="none" 
	d="
M167.827728,146.859741 
	C167.603134,146.943329 167.312744,146.774506 166.956406,146.354324 
	C167.180954,146.271088 167.471420,146.439224 167.827728,146.859741 
z"/>
<path fill="#B9F6FC" opacity="1.000000" stroke="none" 
	d="
M167.383423,120.855621 
	C167.138779,120.872322 167.088455,120.692986 166.990692,120.238075 
	C166.943237,119.962494 167.282562,119.736847 167.473785,119.668221 
	C167.635910,119.952927 167.606812,120.306252 167.383423,120.855621 
z"/>
<path fill="#B9F6FC" opacity="1.000000" stroke="none" 
	d="
M201.051270,304.751190 
	C200.916443,304.526306 201.061478,304.204895 201.425659,303.730225 
	C201.540237,303.936188 201.435684,304.295410 201.051270,304.751190 
z"/>
<path fill="#B9F6FC" opacity="1.000000" stroke="none" 
	d="
M201.687225,301.112122 
	C201.449890,301.129974 201.242325,300.862732 200.974152,300.343140 
	C201.181366,300.336182 201.449203,300.581604 201.687225,301.112122 
z"/>
<path fill="#D42C6B" opacity="1.000000" stroke="none" 
	d="
M321.299194,193.003693 
	C321.198761,192.794922 321.354797,192.500626 321.740417,192.093597 
	C321.831848,192.293289 321.693787,192.605728 321.299194,193.003693 
z"/>
<path fill="#D42C6B" opacity="1.000000" stroke="none" 
	d="
M330.319885,94.284973 
	C330.068054,94.399910 329.723053,94.296295 329.404236,93.889290 
	C329.764709,93.631920 330.030182,93.792099 330.319885,94.284973 
z"/>
<path fill="#B9F6FC" opacity="1.000000" stroke="none" 
	d="
M140.657623,98.135742 
	C140.816666,98.318192 140.762909,98.661919 140.484467,99.155701 
	C140.321457,98.969505 140.383148,98.633263 140.657623,98.135742 
z"/>
<path fill="#D42C6B" opacity="1.000000" stroke="none" 
	d="
M314.651123,201.285736 
	C314.527649,201.038239 314.641052,200.688583 315.054596,200.314026 
	C315.199158,200.587296 315.043579,200.885452 314.651123,201.285736 
z"/>
<path fill="#D42C6B" opacity="1.000000" stroke="none" 
	d="
M313.723389,202.309769 
	C313.602203,202.058899 313.700592,201.712982 314.102661,201.383240 
	C314.368835,201.737671 314.214386,202.009445 313.723389,202.309769 
z"/>
<path fill="#D42C6B" opacity="1.000000" stroke="none" 
	d="
M311.310059,205.023102 
	C311.219696,204.797302 311.394348,204.503876 311.815369,204.119080 
	C311.899506,204.336975 311.737274,204.646210 311.310059,205.023102 
z"/>
<path fill="#D42C6B" opacity="1.000000" stroke="none" 
	d="
M397.759155,282.103760 
	C397.880341,282.460510 397.642059,282.680267 397.065247,282.820404 
	C397.041382,282.580750 397.265717,282.322754 397.759155,282.103760 
z"/>
<path fill="#D42C6B" opacity="1.000000" stroke="none" 
	d="
M229.969879,112.305283 
	C230.201645,112.230881 230.491867,112.424271 230.856537,112.876480 
	C230.630112,112.947891 230.329239,112.760490 229.969879,112.305283 
z"/>
<path fill="#D42C6B" opacity="1.000000" stroke="none" 
	d="
M312.699799,112.626770 
	C312.958282,112.518532 313.302124,112.650421 313.637939,113.085846 
	C313.348328,113.215218 313.066742,113.041061 312.699799,112.626770 
z"/>
<path fill="#D42C6B" opacity="1.000000" stroke="none" 
	d="
M285.370239,219.754059 
	C285.500397,219.983719 285.396606,220.332306 285.007629,220.748169 
	C284.860382,220.501297 284.998322,220.187149 285.370239,219.754059 
z"/>
<path fill="#D42C6B" opacity="1.000000" stroke="none" 
	d="
M280.390045,225.729767 
	C280.512695,225.986160 280.386505,226.332809 279.961304,226.707031 
	C279.821899,226.429733 279.981567,226.124878 280.390045,225.729767 
z"/>
<path fill="#D42C6B" opacity="1.000000" stroke="none" 
	d="
M290.213989,224.918915 
	C290.153076,224.687424 290.359985,224.428696 290.808014,224.095367 
	C290.860016,224.311081 290.670929,224.601379 290.213989,224.918915 
z"/>
<path fill="#D42C6B" opacity="1.000000" stroke="none" 
	d="
M291.278320,223.983932 
	C291.213654,223.766129 291.408295,223.483200 291.858612,223.130280 
	C291.922058,223.346451 291.729858,223.632629 291.278320,223.983932 
z"/>
<path fill="#D42C6B" opacity="1.000000" stroke="none" 
	d="
M282.689575,222.978210 
	C282.780640,223.200027 282.609131,223.496078 282.191467,223.886459 
	C282.105865,223.671341 282.266479,223.361893 282.689575,222.978210 
z"/>
<path fill="#DBF8FD" opacity="1.000000" stroke="none" 
	d="
M215.791107,297.461426 
	C215.119125,295.301056 214.317596,293.246765 214.661865,291.406830 
	C214.782913,290.759796 218.054825,289.914429 219.261856,290.484772 
	C220.418823,291.031433 221.719254,294.166901 221.285934,294.642487 
	C220.004379,296.049133 217.896957,296.703339 215.791107,297.461426 
z"/>
<path fill="#DBF8FD" opacity="1.000000" stroke="none" 
	d="
M91.439659,291.193359 
	C93.745766,291.133270 95.938805,290.983551 97.720787,291.767822 
	C98.243073,291.997681 98.195129,295.413574 97.318230,296.397034 
	C96.453125,297.367279 93.131607,297.806976 92.771332,297.253479 
	C91.729568,295.652954 91.635719,293.435425 91.439659,291.193359 
z"/>
<path fill="#FDE4EE" opacity="1.000000" stroke="none" 
	d="
M281.706573,292.500641 
	C282.121979,296.389984 280.359772,298.493866 277.006073,298.013123 
	C275.455383,297.790833 272.990906,295.521271 273.072235,294.324860 
	C273.191956,292.564148 274.925262,290.068054 276.527496,289.524200 
	C277.778656,289.099548 279.875977,291.167786 281.706573,292.500641 
z"/>
<path fill="#FDE4EE" opacity="1.000000" stroke="none" 
	d="
M382.827850,290.129578 
	C383.242310,292.522125 384.181274,295.321228 383.174652,296.706207 
	C382.378571,297.801453 378.924011,297.790405 377.173340,297.043701 
	C376.186737,296.622925 375.486877,293.434174 376.017700,291.993256 
	C377.081085,289.106537 379.602661,288.302612 382.827850,290.129578 
z"/>
<path fill="#B9F6FC" opacity="1.000000" stroke="none" 
	d="
M194.118439,289.105469 
	C194.294724,293.114166 193.760391,293.349701 187.402206,292.169495 
	C188.664688,289.089722 190.509720,287.681732 194.118439,289.105469 
z"/>
<path fill="#07ADEC" opacity="1.000000" stroke="none" 
	d="
M154.157639,105.552887 
	C155.170105,104.071938 156.102386,102.968430 157.160126,101.583466 
	C158.247940,101.245232 159.210266,101.188438 160.972382,101.084457 
	C157.461960,110.330627 156.680878,119.355621 159.742676,128.711685 
	C160.042557,130.398956 160.042557,131.852219 160.042557,133.305496 
	C159.661148,133.499863 159.279739,133.694229 158.898346,133.888596 
	C156.575546,129.588959 154.252762,125.289337 151.850616,120.649155 
	C152.540009,115.515839 153.308731,110.723083 154.157639,105.552887 
z"/>
<path fill="#32ACD7" opacity="1.000000" stroke="none" 
	d="
M163.722107,131.947296 
	C164.277893,129.591095 164.852051,127.560127 165.704407,125.267136 
	C165.982635,128.682632 165.982635,132.360153 165.982635,136.037674 
	C165.659805,136.087524 165.336960,136.137390 165.014130,136.187241 
	C164.589584,134.882339 164.165039,133.577438 163.722107,131.947296 
z"/>
<path fill="#32ACD7" opacity="1.000000" stroke="none" 
	d="
M163.110291,130.244507 
	C163.435944,130.150055 163.634781,130.386185 163.696136,130.946762 
	C163.290939,131.100449 163.099213,130.868408 163.110291,130.244507 
z"/>
<path fill="#EC0E63" opacity="1.000000" stroke="none" 
	d="
M362.369507,283.170105 
	C362.806091,290.110016 362.854584,296.977081 362.806091,304.276611 
	C359.176788,305.545532 357.849915,303.986633 357.930695,300.545593 
	C358.035248,296.093750 358.011749,291.636353 357.926758,287.183594 
	C357.872192,284.324280 358.890015,282.734711 362.369507,283.170105 
z"/>
</svg>